<svg width="328" height="44" viewBox="0 0 328 44" fill="none" xmlns="http://www.w3.org/2000/svg">
<rect x="0.5" y="0.5" width="327" height="43" fill="#121212" stroke="#3D3D3D" stroke-dasharray="6 6"/>
<path d="M133.364 27L132.678 25.026H128.506L127.82 27H126.07L129.626 17.2H131.558L135.1 27H133.364ZM129.038 23.514H132.146L130.592 19.09L129.038 23.514ZM141.422 17.2H142.934V27H141.422V25.992C140.89 26.734 140.064 27.182 138.972 27.182C137.068 27.182 135.486 25.572 135.486 23.5C135.486 21.414 137.068 19.818 138.972 19.818C140.064 19.818 140.89 20.266 141.422 20.994V17.2ZM139.21 25.74C140.47 25.74 141.422 24.802 141.422 23.5C141.422 22.198 140.47 21.26 139.21 21.26C137.95 21.26 136.998 22.198 136.998 23.5C136.998 24.802 137.95 25.74 139.21 25.74ZM150.24 17.2H151.752V27H150.24V25.992C149.708 26.734 148.882 27.182 147.79 27.182C145.886 27.182 144.304 25.572 144.304 23.5C144.304 21.414 145.886 19.818 147.79 19.818C148.882 19.818 149.708 20.266 150.24 20.994V17.2ZM148.028 25.74C149.288 25.74 150.24 24.802 150.24 23.5C150.24 22.198 149.288 21.26 148.028 21.26C146.768 21.26 145.816 22.198 145.816 23.5C145.816 24.802 146.768 25.74 148.028 25.74ZM157.113 17.2H158.723V27H157.113V17.2ZM164.265 19.818C165.833 19.818 166.953 20.882 166.953 22.702V27H165.441V22.856C165.441 21.792 164.825 21.232 163.873 21.232C162.879 21.232 162.095 21.82 162.095 23.248V27H160.583V20H162.095V20.896C162.557 20.168 163.313 19.818 164.265 19.818ZM173.218 20H174.87L172.14 27H170.39L167.66 20H169.312L171.272 25.32L173.218 20ZM178.858 27.182C176.814 27.182 175.162 25.572 175.162 23.5C175.162 21.414 176.814 19.818 178.858 19.818C180.916 19.818 182.554 21.414 182.554 23.5C182.554 25.572 180.916 27.182 178.858 27.182ZM178.858 25.712C180.09 25.712 181.042 24.774 181.042 23.5C181.042 22.226 180.09 21.288 178.858 21.288C177.626 21.288 176.674 22.226 176.674 23.5C176.674 24.774 177.626 25.712 178.858 25.712ZM184.677 18.95C184.145 18.95 183.711 18.502 183.711 17.984C183.711 17.452 184.145 17.018 184.677 17.018C185.209 17.018 185.643 17.452 185.643 17.984C185.643 18.502 185.209 18.95 184.677 18.95ZM183.921 27V20H185.433V27H183.921ZM190.493 27.182C188.379 27.182 186.797 25.572 186.797 23.5C186.797 21.414 188.379 19.818 190.493 19.818C191.865 19.818 193.055 20.532 193.615 21.624L192.313 22.38C192.005 21.722 191.319 21.302 190.479 21.302C189.247 21.302 188.309 22.24 188.309 23.5C188.309 24.76 189.247 25.698 190.479 25.698C191.319 25.698 192.005 25.264 192.341 24.62L193.643 25.362C193.055 26.468 191.865 27.182 190.493 27.182ZM195.816 24.144C196.054 25.236 196.936 25.796 198.056 25.796C198.896 25.796 199.526 25.418 199.862 24.928L201.108 25.656C200.464 26.608 199.414 27.182 198.042 27.182C195.732 27.182 194.234 25.6 194.234 23.5C194.234 21.428 195.732 19.818 197.93 19.818C200.016 19.818 201.444 21.498 201.444 23.514C201.444 23.724 201.416 23.948 201.388 24.144H195.816ZM195.802 22.912H199.918C199.708 21.708 198.826 21.19 197.916 21.19C196.782 21.19 196.012 21.862 195.802 22.912Z" fill="#969CAA"/>
</svg>
