<svg width="328" height="44" viewBox="0 0 335 44" fill="none" xmlns="http://www.w3.org/2000/svg">
<rect x="0.5" y="0.5" width="334" height="43" fill="#0D0D0D" stroke="#D9D9D9"/>
<path d="M136 22H124" stroke="white" stroke-width="1.5" stroke-linejoin="round"/>
<path d="M130 16V28" stroke="white" stroke-width="1.5" stroke-linejoin="round"/>
<path d="M159.275 27L158.491 24.744H153.723L152.939 27H150.939L155.003 15.8H157.211L161.259 27H159.275ZM154.331 23.016H157.883L156.107 17.96L154.331 23.016ZM168.485 15.8H170.213V27H168.485V25.848C167.877 26.696 166.933 27.208 165.685 27.208C163.509 27.208 161.701 25.368 161.701 23C161.701 20.616 163.509 18.792 165.685 18.792C166.933 18.792 167.877 19.304 168.485 20.136V15.8ZM165.957 25.56C167.397 25.56 168.485 24.488 168.485 23C168.485 21.512 167.397 20.44 165.957 20.44C164.517 20.44 163.429 21.512 163.429 23C163.429 24.488 164.517 25.56 165.957 25.56ZM178.563 15.8H180.291V27H178.563V25.848C177.955 26.696 177.011 27.208 175.763 27.208C173.587 27.208 171.779 25.368 171.779 23C171.779 20.616 173.587 18.792 175.763 18.792C177.011 18.792 177.955 19.304 178.563 20.136V15.8ZM176.035 25.56C177.475 25.56 178.563 24.488 178.563 23C178.563 21.512 177.475 20.44 176.035 20.44C174.595 20.44 173.507 21.512 173.507 23C173.507 24.488 174.595 25.56 176.035 25.56ZM186.417 15.8H188.257V27H186.417V15.8ZM194.847 20.664H192.863V24.504C192.863 25.528 193.535 25.512 194.847 25.448V27C192.191 27.32 191.135 26.584 191.135 24.504V20.664H189.663V19H191.135V17.272L192.863 16.76V19H194.847V20.664ZM197.446 23.736C197.718 24.984 198.726 25.624 200.006 25.624C200.966 25.624 201.686 25.192 202.07 24.632L203.494 25.464C202.758 26.552 201.558 27.208 199.99 27.208C197.35 27.208 195.638 25.4 195.638 23C195.638 20.632 197.35 18.792 199.862 18.792C202.246 18.792 203.878 20.712 203.878 23.016C203.878 23.256 203.846 23.512 203.814 23.736H197.446ZM197.43 22.328H202.134C201.894 20.952 200.886 20.36 199.846 20.36C198.55 20.36 197.67 21.128 197.43 22.328ZM214.135 18.792C215.943 18.792 217.159 20.04 217.159 22.04V27H215.431V22.152C215.431 21.032 214.823 20.408 213.879 20.408C212.855 20.408 212.135 21.064 212.135 22.52V27H210.407V22.152C210.407 21.032 209.847 20.408 208.903 20.408C207.927 20.408 207.127 21.064 207.127 22.52V27H205.399V19H207.127V19.96C207.639 19.176 208.423 18.792 209.415 18.792C210.455 18.792 211.223 19.256 211.687 20.056C212.215 19.224 213.063 18.792 214.135 18.792Z" fill="#FDFCF7"/>
</svg>
