<svg width="38" height="38" viewBox="0 0 32 32" fill="none" xmlns="http://www.w3.org/2000/svg">
<path d="M20 11V4.00002V3L19 3.00002H7C6.74526 3.00002 6 3 6 3C6 3 6 3.75462 6 3.99975V20C6 20.2738 6 21 6 21C6 21 6.72151 21 7 21H13" stroke="#B9B9B6" stroke-linejoin="round"/>
<path d="M20.7539 13H14.4457C14 13 14 13 14 13.2461V16.1931C14 19.4827 16.7961 20.7329 17.4359 20.9759C17.5207 21.008 17.6098 21.008 17.6946 20.9759C18.3344 20.7329 21.1305 19.4827 21.1305 16.1931V13.4457C21.1305 13 21 13 20.7539 13Z" stroke="#B9B9B6" stroke-linecap="round" stroke-linejoin="round"/>
<path d="M18.8667 15.2285L17.0889 17.2285L16.2 16.2285" stroke="#B9B9B6" stroke-linejoin="round"/>
<path d="M9 7H16" stroke="#B9B9B6" stroke-linejoin="round"/>
<path d="M9 10H13" stroke="#B9B9B6" stroke-linejoin="round"/>
</svg>
