<svg width="24" height="24" viewBox="0 0 24 24" fill="none" xmlns="http://www.w3.org/2000/svg">
<rect x="0.5" y="0.5" width="23" height="23" fill="white" stroke="#D9D9D9"/>
<path d="M5.25 5.25C5.25 12.7058 11.2942 18.75 18.75 18.75V13.6875C17.6618 13.6875 16.6217 13.4815 15.6666 13.1064L14.3847 14.3882C12.2998 13.3905 10.6095 11.7002 9.61175 9.61528L10.8936 8.33339C10.5185 7.37829 10.3125 6.3382 10.3125 5.25H5.25Z" stroke="#14181F" stroke-linecap="round" stroke-linejoin="round"/>
<path d="M13.6501 7.38989C13.374 7.38989 13.1501 7.61375 13.1501 7.88989C13.1501 8.16603 13.374 8.38989 13.6501 8.38989L13.6501 7.38989ZM15.3898 8.61049L15.7434 8.25694L15.3898 8.61049ZM13.6501 8.38989C13.9076 8.38989 14.1625 8.4406 14.4003 8.53911L14.783 7.61523C14.4238 7.46646 14.0389 7.38989 13.6501 7.38989L13.6501 8.38989ZM14.4003 8.53911C14.6381 8.63762 14.8542 8.78201 15.0363 8.96404L15.7434 8.25694C15.4685 7.98205 15.1422 7.764 14.783 7.61523L14.4003 8.53911ZM15.0363 8.96404C15.2183 9.14607 15.3627 9.36217 15.4612 9.6L16.3851 9.21732C16.2363 8.85816 16.0183 8.53182 15.7434 8.25694L15.0363 8.96404ZM15.4612 9.6C15.5597 9.83783 15.6104 10.0927 15.6104 10.3502L16.6104 10.3502C16.6104 9.96142 16.5338 9.57647 16.3851 9.21732L15.4612 9.6Z" fill="#21C063"/>
<path d="M14.25 4.90063C13.9739 4.90063 13.75 5.12449 13.75 5.40063C13.75 5.67678 13.9739 5.90063 14.25 5.90063V4.90063ZM14.25 5.90063C14.7555 5.90063 15.256 6.0002 15.723 6.19364L16.1057 5.26976C15.5174 5.02606 14.8868 4.90063 14.25 4.90063V5.90063ZM15.723 6.19364C16.19 6.38708 16.6144 6.6706 16.9718 7.02803L17.6789 6.32093C17.2286 5.87064 16.694 5.51345 16.1057 5.26976L15.723 6.19364ZM16.9718 7.02803C17.3292 7.38546 17.6127 7.80979 17.8062 8.2768L18.7301 7.89412C18.4864 7.30579 18.1292 6.77122 17.6789 6.32093L16.9718 7.02803ZM17.8062 8.2768C17.9996 8.7438 18.0992 9.24434 18.0992 9.74982L19.0992 9.74982C19.0992 9.11301 18.9738 8.48245 18.7301 7.89412L17.8062 8.2768Z" fill="#21C063"/>
</svg>
