<svg width="32" height="32" viewBox="0 0 24 24" fill="none" xmlns="http://www.w3.org/2000/svg">
<path d="M10.9688 14.625H7.91631C7.80884 14.6275 7.70359 14.5942 7.61706 14.5304C7.53054 14.4666 7.46762 14.3759 7.43818 14.2725C7.42081 14.2032 7.41946 14.1308 7.43423 14.0609C7.44899 13.991 7.47949 13.9253 7.5234 13.8689C7.56731 13.8126 7.62349 13.7669 7.68767 13.7355C7.75185 13.704 7.82234 13.6876 7.89381 13.6875H10.9463C11.0538 13.6851 11.159 13.7183 11.2456 13.7821C11.3321 13.8459 11.395 13.9366 11.4244 14.04C11.4418 14.1093 11.4432 14.1817 11.4284 14.2516C11.4136 14.3215 11.3831 14.3872 11.3392 14.4436C11.2953 14.4999 11.2391 14.5456 11.1749 14.577C11.1108 14.6085 11.0403 14.6249 10.9688 14.625ZM14.1226 11.0625H7.91631C7.80884 11.065 7.70359 11.0317 7.61706 10.9679C7.53054 10.9041 7.46762 10.8134 7.43818 10.71C7.42081 10.6407 7.41946 10.5683 7.43423 10.4984C7.44899 10.4285 7.47949 10.3628 7.5234 10.3064C7.56731 10.2501 7.62349 10.2044 7.68767 10.173C7.75185 10.1415 7.82234 10.1251 7.89381 10.125H14.1019C14.2092 10.1223 14.3144 10.1556 14.4006 10.2194C14.4869 10.2833 14.5494 10.3741 14.5782 10.4775C14.5959 10.5469 14.5976 10.6193 14.583 10.6894C14.5683 10.7595 14.5379 10.8253 14.4939 10.8818C14.4499 10.9383 14.3936 10.9839 14.3292 11.0152C14.2648 11.0466 14.1941 11.0627 14.1226 11.0625ZM14.1376 7.875H7.91631C7.80884 7.87745 7.70359 7.84418 7.61706 7.78038C7.53054 7.71659 7.46762 7.62589 7.43818 7.5225C7.42081 7.45318 7.41946 7.38081 7.43423 7.31089C7.44899 7.24097 7.47949 7.17533 7.5234 7.11895C7.56731 7.06256 7.62349 7.01692 7.68767 6.98549C7.75185 6.95405 7.82234 6.93764 7.89381 6.9375H14.1151C14.2225 6.93505 14.3278 6.96833 14.4143 7.03212C14.5008 7.09592 14.5637 7.18662 14.5932 7.29C14.6106 7.35933 14.6119 7.43169 14.5971 7.50162C14.5824 7.57154 14.5519 7.63718 14.508 7.69356C14.4641 7.74994 14.4079 7.79559 14.3437 7.82702C14.2795 7.85846 14.209 7.87487 14.1376 7.875ZM18.1876 16.5H16.4607C16.3531 16.5028 16.2477 16.4696 16.1611 16.4058C16.0746 16.3419 16.0117 16.2511 15.9826 16.1475C15.9648 16.0782 15.9632 16.0057 15.9778 15.9356C15.9924 15.8655 16.0229 15.7997 16.0668 15.7432C16.1108 15.6867 16.1672 15.6411 16.2315 15.6098C16.2959 15.5784 16.3666 15.5623 16.4382 15.5625H18.1651C18.2725 15.5601 18.3778 15.5933 18.4643 15.6571C18.5508 15.7209 18.6137 15.8116 18.6432 15.915C18.6606 15.9843 18.6619 16.0567 18.6471 16.1266C18.6324 16.1965 18.6019 16.2622 18.558 16.3186C18.5141 16.3749 18.4579 16.4206 18.3937 16.452C18.3295 16.4835 18.259 16.4999 18.1876 16.5Z" fill="white"/>
<path d="M15.9374 15.9468V14.25C15.9344 14.1426 15.9675 14.0373 16.0314 13.9509C16.0953 13.8646 16.1864 13.8022 16.2899 13.7737C16.3584 13.7562 16.4299 13.7543 16.4991 13.7683C16.5684 13.7823 16.6336 13.8118 16.6898 13.8545C16.7461 13.8972 16.792 13.9521 16.824 14.0151C16.8561 14.0781 16.8735 14.1474 16.8749 14.2181V15.9693C16.8749 16.0408 16.8585 16.1112 16.8271 16.1754C16.7956 16.2395 16.7499 16.2956 16.6935 16.3394C16.637 16.3831 16.5713 16.4134 16.5014 16.4279C16.4315 16.4425 16.3591 16.4408 16.2899 16.4231C16.1864 16.3946 16.0953 16.3322 16.0314 16.2458C15.9675 16.1595 15.9344 16.0542 15.9374 15.9468Z" fill="white"/>
<path d="M17.0625 11.5894V5.73187C17.061 5.35589 16.911 4.99573 16.6451 4.72986C16.3793 4.464 16.0191 4.31398 15.6431 4.3125H6.48187C6.10589 4.31398 5.74573 4.464 5.47986 4.72986C5.214 4.99573 5.06398 5.35589 5.0625 5.73187V16.0181C5.06398 16.3941 5.214 16.7543 5.47986 17.0201C5.74573 17.286 6.10589 17.436 6.48187 17.4375H12.7313C13.0639 18.1988 13.6108 18.8469 14.3052 19.303C14.9996 19.7591 15.8117 20.0034 16.6425 20.0062C17.7324 20.0181 18.7845 19.6075 19.5783 18.8606C20.372 18.1136 20.8457 17.0884 20.9001 15.9998C20.9544 14.9112 20.5851 13.8439 19.8696 13.0216C19.1542 12.1994 18.1481 11.6861 17.0625 11.5894ZM6 16.0181V5.73187C6 5.60407 6.05077 5.48151 6.14114 5.39114C6.23151 5.30077 6.35407 5.25 6.48187 5.25H15.6431C15.7709 5.25 15.8935 5.30077 15.9839 5.39114C16.0742 5.48151 16.125 5.60407 16.125 5.73187V11.6025C15.0997 11.725 14.1545 12.2181 13.4673 12.9888C12.7802 13.7596 12.3983 14.7549 12.3937 15.7875C12.3941 15.999 12.4097 16.2102 12.4406 16.4194C12.4406 16.4475 12.45 16.4738 12.4556 16.5H6.48187C6.35407 16.5 6.23151 16.4492 6.14114 16.3589C6.05077 16.2685 6 16.1459 6 16.0181ZM16.5525 19.0687C15.9794 19.0658 15.4169 18.9139 14.9202 18.6279C14.4235 18.3419 14.0097 17.9317 13.7194 17.4375C13.5446 17.1473 13.418 16.8307 13.3444 16.5C13.3275 16.4288 13.3144 16.3556 13.3031 16.2825C13.2795 16.1186 13.2676 15.9531 13.2675 15.7875C13.2691 15.0074 13.5479 14.2533 14.0541 13.6598C14.5604 13.0662 15.2612 12.672 16.0312 12.5475C16.3415 12.4981 16.6571 12.493 16.9688 12.5325C17.7966 12.6378 18.5531 13.0546 19.0845 13.6981C19.6159 14.3415 19.8822 15.1632 19.8292 15.996C19.7761 16.8288 19.4078 17.6102 18.799 18.181C18.1903 18.7518 17.387 19.0693 16.5525 19.0687Z" fill="white"/>
</svg>
