<svg width="46" height="14" viewBox="0 0 46 14" fill="none" xmlns="http://www.w3.org/2000/svg">
<rect width="46" height="14" rx="7" fill="#181818"/>
<rect x="0.25" y="0.25" width="45.5" height="13.5" rx="6.75" stroke="white" stroke-opacity="0.16" stroke-width="0.5"/>
<path d="M6.382 9.084C5.11 9.084 4.198 8.124 4.198 6.9C4.198 5.67 5.11 4.716 6.382 4.716C7.15 4.716 7.828 5.106 8.188 5.706L7.474 6.12C7.27 5.748 6.862 5.52 6.382 5.52C5.56 5.52 5.02 6.09 5.02 6.9C5.02 7.704 5.56 8.274 6.382 8.274C6.862 8.274 7.276 8.046 7.474 7.68L8.188 8.094C7.834 8.694 7.156 9.084 6.382 9.084ZM10.1062 9.084C9.22422 9.084 8.52222 8.394 8.52222 7.5C8.52222 6.606 9.22422 5.916 10.1062 5.916C10.9882 5.916 11.6962 6.606 11.6962 7.5C11.6962 8.394 10.9882 9.084 10.1062 9.084ZM10.1062 8.328C10.5682 8.328 10.9222 7.986 10.9222 7.5C10.9222 7.014 10.5682 6.672 10.1062 6.672C9.65022 6.672 9.29622 7.014 9.29622 7.5C9.29622 7.986 9.65022 8.328 10.1062 8.328ZM15.5587 5.916C16.2427 5.916 16.6927 6.402 16.6927 7.152V9H15.9187V7.206C15.9187 6.852 15.7387 6.636 15.4147 6.636C15.0727 6.636 14.8567 6.864 14.8567 7.314V9H14.0827V7.206C14.0827 6.852 13.9027 6.636 13.5787 6.636C13.2487 6.636 13.0147 6.864 13.0147 7.314V9H12.2407V6H13.0147V6.318C13.1827 6.066 13.4647 5.916 13.8487 5.916C14.2207 5.916 14.4967 6.072 14.6647 6.348C14.8507 6.078 15.1507 5.916 15.5587 5.916ZM17.7341 5.64C17.4761 5.64 17.2601 5.424 17.2601 5.166C17.2601 4.908 17.4761 4.686 17.7341 4.686C17.9981 4.686 18.2141 4.908 18.2141 5.166C18.2141 5.424 17.9981 5.64 17.7341 5.64ZM17.3501 9V6H18.1241V9H17.3501ZM20.5005 5.916C21.1365 5.916 21.6345 6.36 21.6345 7.158V9H20.8605V7.254C20.8605 6.846 20.6145 6.636 20.2665 6.636C19.8885 6.636 19.6065 6.858 19.6065 7.38V9H18.8325V6H19.6065V6.336C19.7865 6.066 20.0985 5.916 20.5005 5.916ZM24.5934 6H25.3494V8.856C25.3494 9.84 24.5754 10.284 23.7834 10.284C23.1414 10.284 22.6254 10.038 22.3614 9.552L23.0214 9.174C23.1474 9.408 23.3454 9.594 23.8074 9.594C24.2934 9.594 24.5934 9.33 24.5934 8.856V8.532C24.3834 8.814 24.0594 8.988 23.6334 8.988C22.7814 8.988 22.1394 8.298 22.1394 7.452C22.1394 6.612 22.7814 5.916 23.6334 5.916C24.0594 5.916 24.3834 6.09 24.5934 6.372V6ZM23.7534 8.274C24.2394 8.274 24.5934 7.932 24.5934 7.452C24.5934 6.978 24.2394 6.636 23.7534 6.636C23.2674 6.636 22.9134 6.978 22.9134 7.452C22.9134 7.932 23.2674 8.274 23.7534 8.274ZM29.0213 9.084C28.1633 9.084 27.5993 8.67 27.3713 8.046L28.0793 7.632C28.2293 8.022 28.5233 8.274 29.0453 8.274C29.5433 8.274 29.7173 8.064 29.7173 7.83C29.7173 7.518 29.4353 7.398 28.8113 7.218C28.1693 7.032 27.5453 6.762 27.5453 5.964C27.5453 5.172 28.2053 4.716 28.9253 4.716C29.6153 4.716 30.1433 5.07 30.4253 5.658L29.7293 6.06C29.5793 5.742 29.3513 5.52 28.9253 5.52C28.5773 5.52 28.3733 5.7 28.3733 5.94C28.3733 6.198 28.5353 6.336 29.1713 6.528C29.8373 6.738 30.5453 6.96 30.5453 7.818C30.5453 8.604 29.9153 9.084 29.0213 9.084ZM32.5593 9.084C31.6773 9.084 30.9753 8.394 30.9753 7.5C30.9753 6.606 31.6773 5.916 32.5593 5.916C33.4413 5.916 34.1493 6.606 34.1493 7.5C34.1493 8.394 33.4413 9.084 32.5593 9.084ZM32.5593 8.328C33.0213 8.328 33.3753 7.986 33.3753 7.5C33.3753 7.014 33.0213 6.672 32.5593 6.672C32.1033 6.672 31.7493 7.014 31.7493 7.5C31.7493 7.986 32.1033 8.328 32.5593 8.328ZM36.1218 9.084C35.2398 9.084 34.5378 8.394 34.5378 7.5C34.5378 6.606 35.2398 5.916 36.1218 5.916C37.0038 5.916 37.7118 6.606 37.7118 7.5C37.7118 8.394 37.0038 9.084 36.1218 9.084ZM36.1218 8.328C36.5838 8.328 36.9378 7.986 36.9378 7.5C36.9378 7.014 36.5838 6.672 36.1218 6.672C35.6658 6.672 35.3118 7.014 35.3118 7.5C35.3118 7.986 35.6658 8.328 36.1218 8.328ZM39.9243 5.916C40.5603 5.916 41.0583 6.36 41.0583 7.158V9H40.2843V7.254C40.2843 6.846 40.0383 6.636 39.6903 6.636C39.3123 6.636 39.0303 6.858 39.0303 7.38V9H38.2563V6H39.0303V6.336C39.2103 6.066 39.5223 5.916 39.9243 5.916Z" fill="#EE4E38"/>
</svg>
