<svg width="149" height="53" viewBox="0 0 124 28" fill="none" xmlns="http://www.w3.org/2000/svg">
<path fill-rule="evenodd" clip-rule="evenodd" d="M10.5412 14V0L0 14H6.17649V28L16.7177 14H10.5412Z" fill="white"/>
<path fill-rule="evenodd" clip-rule="evenodd" d="M22.8117 14V28L33.3529 14H27.1767V0L16.6355 14H22.8117Z" fill="white"/>
<path d="M123.185 15.057V17.1541H121.927C121.03 17.1541 120.331 16.9371 119.83 16.5032C119.329 16.0597 119.078 15.3414 119.078 14.3483V11.1375H118.094V9.08379H119.078V7.11684H121.551V9.08379H123.171V11.1375H121.551V14.3772C121.551 14.6182 121.609 14.7918 121.725 14.8979C121.84 15.0039 122.033 15.057 122.303 15.057H123.185Z" fill="white"/>
<path d="M114.973 10.4284C115.262 9.98486 115.624 9.63775 116.058 9.38706C116.492 9.12673 116.974 8.99657 117.504 8.99657V11.6143H116.824C116.207 11.6143 115.744 11.7493 115.436 12.0193C115.127 12.2796 114.973 12.7424 114.973 13.4077V17.1536H112.5V9.08334H114.973V10.4284Z" fill="white"/>
<path d="M102.193 13.1032C102.193 12.274 102.348 11.546 102.656 10.9193C102.974 10.2926 103.404 9.81048 103.943 9.47301C104.483 9.13555 105.086 8.96681 105.751 8.96681C106.32 8.96681 106.817 9.08252 107.241 9.31392C107.675 9.54533 108.008 9.84905 108.239 10.2251V9.08252H110.712V17.1528H108.239V16.0102C107.998 16.3863 107.66 16.69 107.227 16.9214C106.802 17.1528 106.306 17.2685 105.737 17.2685C105.081 17.2685 104.483 17.0998 103.943 16.7623C103.404 16.4152 102.974 15.9283 102.656 15.3016C102.348 14.6652 102.193 13.9324 102.193 13.1032ZM108.239 13.1177C108.239 12.5006 108.065 12.0137 107.718 11.6569C107.381 11.3002 106.966 11.1218 106.474 11.1218C105.983 11.1218 105.563 11.3002 105.216 11.6569C104.879 12.004 104.71 12.4861 104.71 13.1032C104.71 13.7203 104.879 14.212 105.216 14.5784C105.563 14.9352 105.983 15.1135 106.474 15.1135C106.966 15.1135 107.381 14.9352 107.718 14.5784C108.065 14.2217 108.239 13.7347 108.239 13.1177Z" fill="white"/>
<path d="M97.6717 8.99657C98.6745 8.99657 99.4699 9.30029 100.058 9.90773C100.656 10.5152 100.955 11.3588 100.955 12.4387V17.1536H98.4961V12.7714C98.4961 12.2507 98.3563 11.8506 98.0767 11.571C97.8067 11.2817 97.4307 11.1371 96.9486 11.1371C96.4665 11.1371 96.0856 11.2817 95.806 11.571C95.536 11.8506 95.401 12.2507 95.401 12.7714V17.1536H92.9424V12.7714C92.9424 12.2507 92.8025 11.8506 92.5229 11.571C92.253 11.2817 91.8769 11.1371 91.3948 11.1371C90.9127 11.1371 90.5319 11.2817 90.2523 11.571C89.9823 11.8506 89.8473 12.2507 89.8473 12.7714V17.1536H87.3741V9.08334H89.8473V10.0957C90.098 9.75828 90.4258 9.49313 90.8308 9.30029C91.2357 9.09781 91.6937 8.99657 92.2047 8.99657C92.8122 8.99657 93.3521 9.12673 93.8246 9.38706C94.3067 9.6474 94.6827 10.0186 94.9527 10.5007C95.2323 10.0572 95.6132 9.6956 96.0953 9.41599C96.5774 9.13637 97.1028 8.99657 97.6717 8.99657Z" fill="white"/>
<path d="M83.6602 10.4284C83.9494 9.98486 84.311 9.63775 84.7449 9.38706C85.1788 9.12673 85.6609 8.99657 86.1912 8.99657V11.6143H85.5114C84.8943 11.6143 84.4315 11.7493 84.123 12.0193C83.8144 12.2796 83.6602 12.7424 83.6602 13.4077V17.1536H81.187V9.08334H83.6602V10.4284Z" fill="white"/>
<path d="M79.8831 12.9875C79.8831 13.2189 79.8687 13.4599 79.8398 13.7106H74.2426C74.2812 14.212 74.4403 14.5977 74.7199 14.8677C75.0092 15.128 75.3611 15.2582 75.7757 15.2582C76.3928 15.2582 76.8218 14.9978 77.0629 14.4772H79.6951C79.5601 15.0075 79.3143 15.4847 78.9575 15.909C78.6104 16.3332 78.1717 16.6659 77.6414 16.9069C77.1111 17.148 76.5181 17.2685 75.8625 17.2685C75.0718 17.2685 74.368 17.0998 73.7509 16.7623C73.1338 16.4248 72.6517 15.9427 72.3046 15.316C71.9575 14.6893 71.7839 13.9565 71.7839 13.1177C71.7839 12.2788 71.9527 11.546 72.2901 10.9193C72.6372 10.2926 73.1193 9.81048 73.7364 9.47301C74.3535 9.13555 75.0622 8.96681 75.8625 8.96681C76.6435 8.96681 77.3377 9.13073 77.9451 9.45855C78.5526 9.78638 79.025 10.254 79.3625 10.8614C79.7096 11.4689 79.8831 12.1776 79.8831 12.9875ZM77.3521 12.3367C77.3521 11.9124 77.2075 11.5749 76.9183 11.3243C76.629 11.0736 76.2674 10.9482 75.8335 10.9482C75.4189 10.9482 75.067 11.0687 74.7777 11.3098C74.4981 11.5508 74.3246 11.8931 74.2571 12.3367H77.3521Z" fill="white"/>
<path d="M64.9313 10.2251C65.1723 9.84905 65.505 9.54533 65.9292 9.31392C66.3535 9.08252 66.85 8.96681 67.4189 8.96681C68.0842 8.96681 68.6868 9.13555 69.2268 9.47301C69.7667 9.81048 70.1909 10.2926 70.4995 10.9193C70.8177 11.546 70.9768 12.274 70.9768 13.1032C70.9768 13.9324 70.8177 14.6652 70.4995 15.3016C70.1909 15.9283 69.7667 16.4152 69.2268 16.7623C68.6868 17.0998 68.0842 17.2685 67.4189 17.2685C66.8597 17.2685 66.3631 17.1528 65.9292 16.9214C65.505 16.69 65.1723 16.3911 64.9313 16.0247V20.9999H62.4581V9.08252H64.9313V10.2251ZM68.4602 13.1032C68.4602 12.4861 68.2867 12.004 67.9396 11.6569C67.6021 11.3002 67.1827 11.1218 66.6813 11.1218C66.1896 11.1218 65.7701 11.3002 65.423 11.6569C65.0856 12.0137 64.9168 12.5006 64.9168 13.1177C64.9168 13.7347 65.0856 14.2217 65.423 14.5784C65.7701 14.9352 66.1896 15.1135 66.6813 15.1135C67.173 15.1135 67.5925 14.9352 67.9396 14.5784C68.2867 14.212 68.4602 13.7203 68.4602 13.1032Z" fill="white"/>
<path d="M61.5644 9.0826L56.5024 20.9855H53.8412L55.6925 16.8781L52.4094 9.0826H55.1718L57.0375 14.1301L58.8888 9.0826H61.5644Z" fill="white"/>
<path d="M51.5356 6.99997V17.1529H49.0625V12.9731H45.2153V17.1529H42.7422V6.99997H45.2153V10.9773H49.0625V6.99997H51.5356Z" fill="white"/>
</svg>
