<svg width="236" height="172" viewBox="0 0 236 172" fill="none" xmlns="http://www.w3.org/2000/svg">
<mask id="mask0_85_3661" style="mask-type:alpha" maskUnits="userSpaceOnUse" x="0" y="0" width="236" height="172">
<rect width="236" height="172" transform="matrix(-1 0 0 1 236 0)" fill="#0D0D0D"/>
<rect x="-0.25" y="0.25" width="235.5" height="171.5" transform="matrix(-1 0 0 1 235.5 0)" stroke="white" stroke-opacity="0.1" stroke-width="0.5"/>
</mask>
<g mask="url(#mask0_85_3661)">
<path d="M-253.579 94.629C-143.124 44.5014 -105.432 -10.7798 -91.7715 -52.7173C-76.5276 -99.5216 -84.3891 -150.676 -67.9334 -153.853C-57.3965 -155.888 -44.4311 -136.786 -20.2587 -94.9129C53.0438 32.0631 54.7034 65.7832 85.9339 74.5349C129.684 86.8039 156.653 29.0848 223.902 30.3289C273.294 31.2448 313.262 63.3819 340.2 91.9484" stroke="white" stroke-opacity="0.1" stroke-width="0.5" stroke-miterlimit="10"/>
<path d="M-256.231 89.5908C-148.886 40.5426 -109.029 -13.1922 -94.2851 -52.4965C-77.8096 -96.4201 -85.5905 -144.933 -69.306 -147.227C-58.8366 -148.703 -46.1149 -129.928 -22.7657 -89.4895C48.194 33.3845 50.3952 67.5245 81.3853 75.8442C125.389 87.4918 151.183 25.5976 219.144 24.7549C220.626 24.7366 222.085 24.7366 223.545 24.7732C271.765 26.0174 312.302 58.1697 339.817 86.5606" stroke="white" stroke-opacity="0.1" stroke-width="0.5" stroke-miterlimit="10"/>
<path d="M-258.875 84.5507C-154.648 36.5863 -112.657 -15.5105 -96.7921 -52.2745C-79.1098 -93.2534 -86.7804 -139.184 -70.672 -140.6C-60.2668 -141.516 -47.7872 -123.066 -25.2678 -84.0636C43.3342 34.7026 46.064 69.3722 76.8483 77.1515C121.066 88.3259 145.737 22.0779 214.398 19.1775C215.905 19.1133 217.406 19.0492 218.908 19.0569C267.924 19.3072 310.569 52.1236 339.442 81.1694" stroke="white" stroke-opacity="0.1" stroke-width="0.5" stroke-miterlimit="10"/>
<path d="M-261.524 79.512C-160.401 32.6177 -116.342 -17.7159 -99.3034 -52.0513C-80.4637 -90.0183 -87.9679 -133.43 -72.044 -133.969C-61.698 -134.32 -49.4752 -116.203 -27.7741 -78.6378C38.4786 36.0341 41.7483 71.1602 72.3071 78.4602C116.76 89.0789 140.295 18.5337 209.648 13.6014C211.187 13.4915 212.725 13.3861 214.258 13.3403C264.068 11.8657 308.823 46.0773 339.054 75.7765" stroke="white" stroke-opacity="0.1" stroke-width="0.5" stroke-miterlimit="10"/>
<path d="M-264.173 74.4723C-166.16 28.6619 -120.101 -19.8048 -101.816 -51.8289C-81.8943 -86.7184 -89.1483 -127.671 -73.4137 -127.34C-63.1253 -127.125 -51.156 -109.34 -30.2781 -73.2114C33.6235 37.3587 37.4349 72.9427 67.7664 79.7664C112.468 89.8234 134.86 14.9625 204.898 8.01823C206.47 7.86557 208.044 7.71292 209.623 7.61827C260.224 4.80635 307.09 40.0271 338.684 70.3857" stroke="white" stroke-opacity="0.1" stroke-width="0.5" stroke-miterlimit="10"/>
<path d="M-266.822 69.4337C-171.917 24.7056 -123.955 -21.7658 -104.323 -51.6039C-83.4335 -83.3563 -90.3286 -121.906 -74.7801 -120.711C-64.5461 -119.923 -52.8353 -102.478 -32.7805 -67.7839C28.7733 38.6843 33.128 74.7202 63.2291 81.0752C108.176 90.5628 129.431 11.3681 200.152 2.44687C201.758 2.24383 203.365 2.03775 204.985 1.90647C256.374 -2.2305 305.361 33.9855 338.309 65.0006" stroke="white" stroke-opacity="0.1" stroke-width="0.5" stroke-miterlimit="10"/>
<path d="M-269.469 64.3942C-177.676 20.7439 -127.934 -23.6026 -106.837 -51.3814C-85.1324 -79.9616 -91.499 -116.135 -76.153 -114.082C-65.97 -112.72 -54.5193 -95.6103 -35.2894 -62.3589C23.915 40.0075 28.818 76.4922 58.6852 82.3816C103.887 91.2952 123.996 7.75132 195.399 -3.12998C197.045 -3.38033 198.682 -3.6368 200.338 -3.8093C252.512 -9.26216 303.618 27.9431 337.924 59.61" stroke="white" stroke-opacity="0.1" stroke-width="0.5" stroke-miterlimit="10"/>
<path d="M-272.118 59.3552C-183.435 16.7841 -136.949 -29.7957 -109.347 -51.1584C-92.63 -80.021 -92.6712 -110.355 -77.5227 -107.453C-67.3907 -105.511 -56.2002 -88.7529 -37.7935 -56.9242C19.0599 41.3403 24.5111 78.2662 54.1445 83.6976C99.5999 92.0281 118.563 4.12129 190.647 -8.69873C192.323 -8.99641 194.001 -9.30172 195.698 -9.51849C248.661 -16.2735 301.891 21.9011 337.55 54.2275" stroke="white" stroke-opacity="0.1" stroke-width="0.5" stroke-miterlimit="10"/>
<path d="M-274.767 54.3167C-189.193 12.8249 -141.45 -32.5138 -111.858 -50.9348C-94.9299 -77.2343 -93.8433 -104.567 -78.8923 -100.823C-68.8098 -98.2978 -57.8827 -81.8934 -40.2992 -51.5042C14.1965 42.6584 20.2075 80.0209 49.6056 84.999C95.3161 92.7386 113.128 0.456742 185.897 -14.2822C187.606 -14.6287 189.319 -14.9829 191.057 -15.2424C244.809 -23.2889 300.147 15.849 337.172 48.8303" stroke="white" stroke-opacity="0.1" stroke-width="0.5" stroke-miterlimit="10"/>
<path d="M-277.416 49.2764C-194.952 8.86386 -145.953 -35.2307 -114.37 -50.7131C-97.2314 -74.451 -95.0153 -98.7752 -80.262 -94.1955C-70.2305 -91.0829 -59.5635 -75.0311 -42.8048 -46.08C9.34971 43.9869 15.9057 81.7738 45.065 86.3031C91.0356 93.4458 107.689 -3.22037 181.148 -19.8629C182.89 -20.2567 184.638 -20.6582 186.416 -20.962C240.956 -30.2923 298.411 9.79964 336.793 43.4373" stroke="white" stroke-opacity="0.1" stroke-width="0.5" stroke-miterlimit="10"/>
<path d="M-280.065 44.2378C-200.708 4.90457 -150.455 -37.9474 -116.882 -50.4881C-99.5324 -71.6629 -96.1902 -92.9721 -81.6345 -87.5651C-71.654 -83.8586 -61.2455 -68.1656 -45.31 -40.657C4.49346 45.3034 11.6042 83.5207 40.5232 87.6088C86.754 94.144 102.245 -6.91404 176.397 -25.4419C178.173 -25.8861 179.956 -26.3318 181.772 -26.6814C237.106 -37.2864 296.673 3.75203 336.413 38.0446" stroke="white" stroke-opacity="0.1" stroke-width="0.5" stroke-miterlimit="10"/>
<path d="M-282.714 39.1963C-206.471 0.945407 -154.954 -40.6655 -119.392 -50.2599C-101.831 -68.8717 -97.3663 -87.1614 -83.0064 -80.9299C-73.0803 -76.6251 -62.9286 -61.2984 -47.818 -35.2203C-0.36392 46.6383 7.30168 85.2739 35.9835 88.9255C82.4778 94.847 96.7965 -10.606 171.647 -31.0085C173.458 -31.5016 175.269 -31.9946 177.131 -32.3824C233.258 -44.2559 294.935 -2.28021 336.034 32.6688" stroke="white" stroke-opacity="0.1" stroke-width="0.5" stroke-miterlimit="10"/>
<path d="M-285.363 34.158C-212.229 -3.01366 -159.462 -43.3819 -121.904 -50.0423C-104.133 -66.091 -98.5499 -81.3535 -84.3744 -74.3069C-74.5059 -69.4006 -64.6094 -54.4403 -50.322 -29.7986C-5.21077 47.9581 3.00473 87.0074 31.4413 90.2284C78.1989 95.5241 91.3388 -14.3331 166.897 -36.5903C168.739 -37.1337 170.593 -37.6711 172.495 -38.1092C229.419 -51.2376 293.203 -8.34135 335.661 27.2702" stroke="white" stroke-opacity="0.1" stroke-width="0.5" stroke-miterlimit="10"/>
<path d="M-288.007 29.1182C-217.987 -6.97414 -163.964 -46.0983 -124.414 -49.817C-106.434 -63.3026 -99.7366 -75.5379 -85.7438 -67.6777C-75.9346 -62.1668 -66.29 -47.579 -52.8258 -24.3738C-10.0706 49.2825 -1.29363 88.744 26.9009 91.5361C73.9252 96.1982 85.8764 -18.0707 162.146 -42.1674C164.023 -42.7612 165.913 -43.3444 167.849 -43.8267C225.571 -58.213 291.462 -14.3825 335.287 21.8793" stroke="white" stroke-opacity="0.1" stroke-width="0.5" stroke-miterlimit="10"/>
<path d="M-290.659 24.0792C-223.746 -10.9339 -168.465 -48.8154 -126.925 -49.5955C-108.734 -60.518 -100.926 -69.7201 -87.1131 -61.0447C-77.3681 -54.9277 -67.9704 -40.714 -55.3376 -18.9438C-14.9318 50.6108 -5.59836 90.4707 22.3541 92.846C69.6436 96.8654 80.4012 -21.7984 157.39 -47.7422C159.3 -48.3849 161.226 -49.0123 163.2 -49.5405C221.728 -65.1755 289.719 -20.4245 334.894 16.4922" stroke="white" stroke-opacity="0.1" stroke-width="0.5" stroke-miterlimit="10"/>
<path d="M-293.308 19.0404C-229.505 -14.8935 -172.968 -51.5324 -129.437 -49.3723C-111.034 -57.7317 -102.124 -63.899 -88.4834 -54.4191C-78.8059 -47.6931 -69.6536 -33.8533 -57.8357 -13.5196C-19.781 51.9315 -9.89105 92.1899 17.8211 94.1515C65.3756 97.5176 74.9313 -25.555 152.646 -53.3139C154.589 -54.0069 156.551 -54.6786 158.573 -55.2511C217.898 -72.1378 287.988 -26.4739 334.522 11.0931" stroke="white" stroke-opacity="0.1" stroke-width="0.5" stroke-miterlimit="10"/>
<path d="M-295.957 14.001C-235.263 -18.852 -177.471 -54.2438 -131.948 -49.1496C-113.344 -54.9506 -103.326 -58.0754 -89.8531 -47.7895C-80.248 -40.4544 -71.3344 -26.9917 -60.3414 -8.09898C-24.636 53.2503 -14.1897 93.901 13.2805 95.452C61.1 98.154 69.4473 -29.3197 147.896 -58.9043C149.872 -59.6493 151.871 -60.3637 153.924 -60.982C214.065 -79.0931 286.256 -32.5193 334.143 5.70872" stroke="white" stroke-opacity="0.1" stroke-width="0.5" stroke-miterlimit="10"/>
<path d="M-298.606 8.95593C-241.022 -22.8178 -181.974 -56.9715 -134.46 -48.9311C-115.637 -52.1659 -104.532 -52.259 -91.2261 -41.167C-81.6934 -33.229 -73.0169 -20.1357 -62.8488 -2.67338C-29.4928 54.5725 -18.4899 95.6125 8.73818 96.7604C56.8245 98.7938 63.9566 -33.0793 143.147 -64.4715C145.154 -65.2683 147.19 -66.0255 149.281 -66.6896C210.237 -86.0417 284.514 -38.5627 333.765 0.326296" stroke="white" stroke-opacity="0.1" stroke-width="0.5" stroke-miterlimit="10"/>
<path d="M-301.253 3.91772C-246.781 -26.7661 -187.1 -40.5158 -136.969 -48.7027C-118.21 -51.7665 -105.741 -46.4296 -92.594 -34.5317C-83.1388 -25.9829 -74.6961 -13.2667 -65.3511 2.75907C-34.3462 55.9061 -22.7885 97.3247 4.1992 98.0742C52.5473 99.4161 58.4595 -36.8536 138.397 -70.0531C140.435 -70.8988 142.513 -71.7003 144.64 -72.4101C206.411 -92.9927 282.773 -44.6115 333.388 -5.07217" stroke="white" stroke-opacity="0.1" stroke-width="0.5" stroke-miterlimit="10"/>
<path d="M-303.902 -1.11872C-252.535 -30.7339 -192.112 -58.102 -139.48 -48.4817C-120.494 -45.0103 -106.955 -40.6092 -93.9637 -27.9037C-84.5891 -18.7444 -76.3785 -6.40672 -67.8568 8.18411C-39.1996 57.2293 -27.0904 99.0234 -0.341382 99.3791C48.2668 100.026 52.9541 -40.6336 133.646 -75.6315C135.718 -76.5291 137.832 -77.3687 139.999 -78.1274C202.635 -99.8213 281.041 -50.657 333.014 -10.4613" stroke="white" stroke-opacity="0.1" stroke-width="0.5" stroke-miterlimit="10"/>
<path d="M-306.552 -6.15789C-258.298 -34.6938 -196.209 -62.9824 -141.991 -48.2588C-122.76 -43.0349 -108.174 -34.7869 -95.334 -21.2754C-86.0433 -11.5054 -78.06 0.45668 -70.3631 13.6095C-44.0553 58.5544 -31.3929 100.826 -4.8826 100.687C43.9841 100.431 47.3839 -44.5248 128.895 -81.208C130.997 -82.1606 133.151 -83.0394 135.356 -83.8444C198.795 -106.821 279.303 -56.7052 332.63 -15.8546" stroke="white" stroke-opacity="0.1" stroke-width="0.5" stroke-miterlimit="10"/>
<path d="M-309.2 -11.1943C-264.056 -38.6494 -199.983 -67.8295 -144.503 -48.0316C-60.8659 -18.1813 -53.63 102.699 -9.42102 101.997C40.9752 101.197 42.0058 -56.0613 130.715 -89.5585C194.954 -113.816 277.574 -62.7491 332.252 -21.2405" stroke="white" stroke-opacity="0.1" stroke-width="0.5" stroke-miterlimit="10"/>
</g>
</svg>
