<svg width="107" height="38" viewBox="0 0 97 28" fill="none" xmlns="http://www.w3.org/2000/svg">
<path fill-rule="evenodd" clip-rule="evenodd" d="M10.5412 14V0L0 14H6.17649V28L16.7177 14H10.5412Z" fill="white"/>
<path fill-rule="evenodd" clip-rule="evenodd" d="M22.8117 14V28L33.3529 14H27.1767V0L16.6355 14H22.8117Z" fill="white"/>
<path d="M96.2769 22.5219V23.9175H95.4395C94.8428 23.9175 94.3776 23.7732 94.0439 23.4844C93.7103 23.1893 93.5434 22.7112 93.5434 22.0503V19.9135H92.8889V18.5468H93.5434V17.2378H95.1893V18.5468H96.2673V19.9135H95.1893V22.0695C95.1893 22.23 95.2278 22.3455 95.3048 22.416C95.3818 22.4866 95.5101 22.5219 95.6898 22.5219H96.2769Z" fill="white"/>
<path d="M90.8124 19.4416C91.0049 19.1465 91.2455 18.9155 91.5343 18.7486C91.823 18.5754 92.1438 18.4888 92.4968 18.4888V20.2309H92.0444C91.6337 20.2309 91.3257 20.3207 91.1204 20.5004C90.915 20.6736 90.8124 20.9816 90.8124 21.4244V23.9173H89.1665V18.5465H90.8124V19.4416Z" fill="white"/>
<path d="M82.3066 21.2217C82.3066 20.6699 82.4093 20.1855 82.6146 19.7684C82.8264 19.3513 83.1119 19.0305 83.4713 18.8059C83.8306 18.5813 84.2316 18.469 84.6744 18.469C85.053 18.469 85.3834 18.546 85.6658 18.7C85.9545 18.854 86.1759 19.0561 86.3299 19.3064V18.546H87.9758V23.9167H86.3299V23.1564C86.1695 23.4066 85.9449 23.6087 85.6561 23.7627C85.3738 23.9167 85.0434 23.9937 84.6648 23.9937C84.2284 23.9937 83.8306 23.8815 83.4713 23.6569C83.1119 23.4259 82.8264 23.1018 82.6146 22.6847C82.4093 22.2612 82.3066 21.7736 82.3066 21.2217ZM86.3299 21.2314C86.3299 20.8207 86.2144 20.4967 85.9834 20.2592C85.7588 20.0218 85.4829 19.9031 85.1556 19.9031C84.8284 19.9031 84.5493 20.0218 84.3183 20.2592C84.0937 20.4902 83.9814 20.8111 83.9814 21.2217C83.9814 21.6324 84.0937 21.9597 84.3183 22.2035C84.5493 22.4409 84.8284 22.5596 85.1556 22.5596C85.4829 22.5596 85.7588 22.4409 85.9834 22.2035C86.2144 21.9661 86.3299 21.642 86.3299 21.2314Z" fill="white"/>
<path d="M79.2975 18.4888C79.9648 18.4888 80.4942 18.6909 80.8856 19.0951C81.2834 19.4994 81.4823 20.0609 81.4823 20.7795V23.9173H79.8461V21.0009C79.8461 20.6544 79.753 20.3881 79.567 20.202C79.3873 20.0095 79.137 19.9133 78.8162 19.9133C78.4954 19.9133 78.2419 20.0095 78.0558 20.202C77.8762 20.3881 77.7863 20.6544 77.7863 21.0009V23.9173H76.1501V21.0009C76.1501 20.6544 76.057 20.3881 75.871 20.202C75.6913 20.0095 75.441 19.9133 75.1202 19.9133C74.7994 19.9133 74.5459 20.0095 74.3598 20.202C74.1802 20.3881 74.0903 20.6544 74.0903 21.0009V23.9173H72.4445V18.5465H74.0903V19.2203C74.2572 18.9957 74.4753 18.8192 74.7448 18.6909C75.0143 18.5561 75.3191 18.4888 75.6592 18.4888C76.0635 18.4888 76.4228 18.5754 76.7372 18.7486C77.058 18.9219 77.3083 19.1689 77.488 19.4898C77.674 19.1946 77.9275 18.954 78.2483 18.7679C78.5692 18.5818 78.9189 18.4888 79.2975 18.4888Z" fill="white"/>
<path d="M69.9736 19.4416C70.1661 19.1465 70.4068 18.9155 70.6955 18.7486C70.9843 18.5754 71.3051 18.4888 71.658 18.4888V20.2309H71.2056C70.795 20.2309 70.487 20.3207 70.2816 20.5004C70.0763 20.6736 69.9736 20.9816 69.9736 21.4244V23.9173H68.3278V18.5465H69.9736V19.4416Z" fill="white"/>
<path d="M67.4595 21.1447C67.4595 21.2987 67.4498 21.4592 67.4306 21.626H63.7057C63.7314 21.9597 63.8372 22.2163 64.0233 22.396C64.2158 22.5692 64.45 22.6559 64.726 22.6559C65.1366 22.6559 65.4222 22.4826 65.5826 22.1361H67.3343C67.2445 22.489 67.0809 22.8067 66.8435 23.089C66.6125 23.3713 66.3205 23.5927 65.9676 23.7531C65.6147 23.9135 65.22 23.9937 64.7837 23.9937C64.2575 23.9937 63.7891 23.8815 63.3785 23.6569C62.9678 23.4323 62.647 23.1115 62.416 22.6944C62.185 22.2773 62.0695 21.7896 62.0695 21.2314C62.0695 20.6731 62.1817 20.1855 62.4063 19.7684C62.6373 19.3513 62.9582 19.0305 63.3688 18.8059C63.7795 18.5813 64.2511 18.469 64.7837 18.469C65.3035 18.469 65.7655 18.5781 66.1697 18.7962C66.574 19.0144 66.8884 19.3256 67.113 19.7299C67.344 20.1341 67.4595 20.6057 67.4595 21.1447ZM65.7751 20.7116C65.7751 20.4293 65.6788 20.2047 65.4863 20.0379C65.2938 19.871 65.0532 19.7876 64.7645 19.7876C64.4885 19.7876 64.2543 19.8678 64.0618 20.0282C63.8757 20.1887 63.7602 20.4165 63.7153 20.7116H65.7751Z" fill="white"/>
<path d="M57.5098 19.3064C57.6702 19.0561 57.8916 18.854 58.1739 18.7C58.4562 18.546 58.7867 18.469 59.1653 18.469C59.608 18.469 60.0091 18.5813 60.3684 18.8059C60.7277 19.0305 61.0101 19.3513 61.2154 19.7684C61.4271 20.1855 61.533 20.6699 61.533 21.2217C61.533 21.7736 61.4271 22.2612 61.2154 22.6847C61.0101 23.1018 60.7277 23.4259 60.3684 23.6569C60.0091 23.8815 59.608 23.9937 59.1653 23.9937C58.7931 23.9937 58.4626 23.9167 58.1739 23.7627C57.8916 23.6087 57.6702 23.4098 57.5098 23.166V26.477H55.8639V18.546H57.5098V19.3064ZM59.8583 21.2217C59.8583 20.8111 59.7428 20.4902 59.5118 20.2592C59.2872 20.0218 59.0081 19.9031 58.6744 19.9031C58.3471 19.9031 58.068 20.0218 57.837 20.2592C57.6124 20.4967 57.5001 20.8207 57.5001 21.2314C57.5001 21.642 57.6124 21.9661 57.837 22.2035C58.068 22.4409 58.3471 22.5596 58.6744 22.5596C59.0016 22.5596 59.2808 22.4409 59.5118 22.2035C59.7428 21.9597 59.8583 21.6324 59.8583 21.2217Z" fill="white"/>
<path d="M55.2691 18.5459L51.9004 26.4673H50.1294L51.3614 23.7338L49.1765 18.5459H51.0149L52.2565 21.905L53.4885 18.5459H55.2691Z" fill="white"/>
<path d="M48.5946 17.1599V23.9167H46.9487V21.135H44.3884V23.9167H42.7426V17.1599H44.3884V19.8068H46.9487V17.1599H48.5946Z" fill="white"/>
<path d="M71.2633 9.83178C70.8142 9.83178 70.4117 9.75886 70.0558 9.61303C69.7 9.46719 69.4142 9.25136 69.1983 8.96553C68.9883 8.67969 68.8775 8.33553 68.8658 7.93303H70.4583C70.4817 8.16053 70.5604 8.33553 70.6946 8.45803C70.8288 8.57469 71.0038 8.63303 71.2196 8.63303C71.4413 8.63303 71.6163 8.58344 71.7446 8.48428C71.8729 8.37928 71.9371 8.23636 71.9371 8.05553C71.9371 7.90386 71.8846 7.77844 71.7796 7.67928C71.6804 7.58011 71.555 7.49844 71.4033 7.43428C71.2575 7.37011 71.0475 7.29719 70.7733 7.21553C70.3767 7.09303 70.0529 6.97053 69.8021 6.84803C69.5513 6.72553 69.3354 6.54469 69.1546 6.30553C68.9738 6.06636 68.8833 5.75428 68.8833 5.36928C68.8833 4.79761 69.0904 4.35136 69.5046 4.03053C69.9188 3.70386 70.4583 3.54053 71.1233 3.54053C71.8 3.54053 72.3454 3.70386 72.7596 4.03053C73.1738 4.35136 73.3954 4.80053 73.4246 5.37803H71.8058C71.7942 5.17969 71.7213 5.02511 71.5871 4.91428C71.4529 4.79761 71.2808 4.73928 71.0708 4.73928C70.89 4.73928 70.7442 4.78886 70.6333 4.88803C70.5225 4.98136 70.4671 5.11844 70.4671 5.29928C70.4671 5.49761 70.5604 5.65219 70.7471 5.76303C70.9338 5.87386 71.2254 5.99344 71.6221 6.12178C72.0188 6.25594 72.3396 6.38428 72.5846 6.50678C72.8354 6.62928 73.0513 6.80719 73.2321 7.04053C73.4129 7.27386 73.5033 7.57428 73.5033 7.94178C73.5033 8.29178 73.4129 8.60969 73.2321 8.89553C73.0571 9.18136 72.8004 9.40886 72.4621 9.57803C72.1238 9.74719 71.7242 9.83178 71.2633 9.83178Z" fill="white"/>
<path d="M68.4157 3.62817L66.2369 9.77067H64.3644L62.1857 3.62817H63.7782L65.3007 8.26567L66.8319 3.62817H68.4157Z" fill="white"/>
<path d="M61.8986 3.62817V4.82692H60.2711V9.77067H58.7748V4.82692H57.1473V3.62817H61.8986Z" fill="white"/>
<path d="M56.9385 4.88818L53.876 12.0894H52.266L53.386 9.60443L51.3998 4.88818H53.071L54.1998 7.94193L55.3198 4.88818H56.9385Z" fill="white"/>
<path d="M48.9182 4.83545C49.5249 4.83545 50.0062 5.0192 50.362 5.3867C50.7237 5.7542 50.9045 6.26462 50.9045 6.91795V9.77045H49.417V7.1192C49.417 6.8042 49.3324 6.56212 49.1632 6.39295C48.9999 6.21795 48.7724 6.13045 48.4807 6.13045C48.1891 6.13045 47.9586 6.21795 47.7895 6.39295C47.6261 6.56212 47.5445 6.8042 47.5445 7.1192V9.77045H46.057V7.1192C46.057 6.8042 45.9724 6.56212 45.8032 6.39295C45.6399 6.21795 45.4124 6.13045 45.1207 6.13045C44.8291 6.13045 44.5986 6.21795 44.4295 6.39295C44.2661 6.56212 44.1845 6.8042 44.1845 7.1192V9.77045H42.6882V4.88795H44.1845V5.50045C44.3361 5.29628 44.5345 5.13587 44.7795 5.0192C45.0245 4.8967 45.3016 4.83545 45.6107 4.83545C45.9782 4.83545 46.3049 4.9142 46.5907 5.0717C46.8824 5.2292 47.1099 5.45378 47.2732 5.74545C47.4424 5.47712 47.6728 5.25837 47.9645 5.0892C48.2562 4.92003 48.5741 4.83545 48.9182 4.83545Z" fill="white"/>
</svg>
