<svg width="38" height="38" viewBox="0 0 32 32" fill="none" xmlns="http://www.w3.org/2000/svg">
<path d="M14.4409 14.0502H14.441C14.5282 14.0502 14.6142 14.0294 14.6918 13.9896C14.7694 13.9498 14.8365 13.8922 14.8875 13.8214C14.9385 13.7507 14.972 13.6688 14.9852 13.5826C14.9984 13.4964 14.9909 13.4082 14.9634 13.3255L14.9634 13.3254L12.4194 5.69343L12.4194 5.69342C12.25 5.18572 11.9252 4.74417 11.491 4.43131C11.0568 4.11845 10.5351 3.95015 9.99994 3.95024C9.99994 3.95024 9.99993 3.95024 9.99993 3.95024H6.49994C6.35407 3.95024 6.21418 4.00819 6.11103 4.11134C6.00789 4.21448 5.94994 4.35438 5.94994 4.50024L5.94994 11.5002L5.94994 11.5003C5.95075 12.1763 6.21966 12.8245 6.69769 13.3025C7.17572 13.7805 7.82384 14.0494 8.49988 14.0502H8.49994H14.4409ZM13.6786 12.9502H8.49994C7.70055 12.9502 7.04994 12.2996 7.04994 11.5002V5.05024L9.99994 5.05024L9.99998 5.05024C10.3044 5.04998 10.6012 5.14567 10.8481 5.32371C11.095 5.50175 11.2796 5.75308 11.3755 6.042L11.3755 6.04206L13.6786 12.9502Z" fill="#B9B9B6" stroke="#B9B9B6" stroke-width="0.1"/>
<path d="M8.49994 14.0502H8.5H15.95V17.9502H14.5C14.3541 17.9502 14.2142 18.0082 14.1111 18.1113C14.0079 18.2145 13.95 18.3544 13.95 18.5002C13.95 18.6461 14.0079 18.786 14.1111 18.8892C14.2142 18.9923 14.3541 19.0502 14.5 19.0502H16.5C16.6459 19.0502 16.7858 18.9923 16.8889 18.8892C16.9921 18.786 17.05 18.6461 17.05 18.5002V13.5002C17.05 13.3544 16.9921 13.2145 16.8889 13.1113C16.7858 13.0082 16.6459 12.9502 16.5 12.9502H8.5C7.70061 12.9502 7.05 12.2996 7.05 11.5002V10.5002C7.05 10.3544 6.99205 10.2145 6.88891 10.1113C6.78576 10.0082 6.64587 9.95024 6.5 9.95024H3.5C2.09337 9.95024 0.95 11.0946 0.95 12.5002V17.5002C0.95 18.3549 1.64539 19.0502 2.5 19.0502H3.5C3.64587 19.0502 3.78576 18.9923 3.88891 18.8892C3.99205 18.786 4.05 18.6461 4.05 18.5002C4.05 18.3544 3.99205 18.2145 3.88891 18.1113C3.78576 18.0082 3.64587 17.9502 3.5 17.9502H2.5C2.38065 17.9502 2.26619 17.9028 2.1818 17.8184C2.09741 17.7341 2.05 17.6196 2.05 17.5002V12.5002C2.05 11.7009 2.70061 11.0502 3.5 11.0502H5.95V11.5002V11.5003C5.95081 12.1763 6.21972 12.8245 6.69775 13.3025C7.17579 13.7805 7.8239 14.0494 8.49994 14.0502Z" fill="#B9B9B6" stroke="#B9B9B6" stroke-width="0.1"/>
<path d="M7.5 19.0502H10.5C10.6459 19.0502 10.7858 18.9923 10.8889 18.8892C10.9921 18.786 11.05 18.6461 11.05 18.5002C11.05 18.3544 10.9921 18.2145 10.8889 18.1113C10.7858 18.0082 10.6459 17.9502 10.5 17.9502H7.5C7.35413 17.9502 7.21424 18.0082 7.11109 18.1113C7.00795 18.2145 6.95 18.3544 6.95 18.5002C6.95 18.6461 7.00795 18.786 7.11109 18.8892C7.21424 18.9923 7.35413 19.0502 7.5 19.0502ZM16.5 11.0502H24.5C24.6459 11.0502 24.7858 10.9923 24.8889 10.8892C24.9921 10.786 25.05 10.6461 25.05 10.5002C25.05 10.3544 24.9921 10.2145 24.8889 10.1113C24.7858 10.0082 24.6459 9.95024 24.5 9.95024H16.5C16.3541 9.95024 16.2142 10.0082 16.1111 10.1113C16.0079 10.2145 15.95 10.3544 15.95 10.5002C15.95 10.6461 16.0079 10.786 16.1111 10.8892C16.2142 10.9923 16.3541 11.0502 16.5 11.0502Z" fill="#B9B9B6" stroke="#B9B9B6" stroke-width="0.1"/>
<path d="M16.111 18.8889C16.2142 18.9921 16.3541 19.05 16.4999 19.05C16.6458 19.05 16.7857 18.9921 16.8888 18.8889C16.992 18.7858 17.0499 18.6459 17.0499 18.5V3.5C17.0499 3.35413 16.992 3.21424 16.8888 3.11109C16.7857 3.00795 16.6458 2.95 16.4999 2.95C16.3541 2.95 16.2142 3.00795 16.111 3.11109C16.0079 3.21424 15.9499 3.35413 15.9499 3.5V18.5C15.9499 18.6459 16.0079 18.7858 16.111 18.8889ZM2.94994 18.5C2.94994 19.9056 4.09331 21.05 5.49994 21.05C6.90657 21.05 8.04994 19.9056 8.04994 18.5C8.04994 17.0944 6.90657 15.95 5.49994 15.95C4.09331 15.95 2.94994 17.0944 2.94994 18.5ZM4.04994 18.5C4.04994 17.7006 4.70055 17.05 5.49994 17.05C6.29932 17.05 6.94994 17.7006 6.94994 18.5C6.94994 19.2994 6.29932 19.95 5.49994 19.95C4.70055 19.95 4.04994 19.2994 4.04994 18.5ZM9.94994 18.5C9.94994 19.9056 11.0933 21.05 12.4999 21.05C13.9066 21.05 15.0499 19.9056 15.0499 18.5C15.0499 17.0944 13.9066 15.95 12.4999 15.95C11.0933 15.95 9.94994 17.0944 9.94994 18.5ZM11.0499 18.5C11.0499 17.7006 11.7006 17.05 12.4999 17.05C13.2993 17.05 13.9499 17.7006 13.9499 18.5C13.9499 19.2994 13.2993 19.95 12.4999 19.95C11.7006 19.95 11.0499 19.2994 11.0499 18.5ZM18.4999 11.05H24.4999C24.6458 11.05 24.7857 10.9921 24.8888 10.8889C24.992 10.7858 25.0499 10.6459 25.0499 10.5V4.5C25.0499 4.35413 24.992 4.21424 24.8888 4.11109C24.7857 4.00795 24.6458 3.95 24.4999 3.95H18.4999C18.3541 3.95 18.2142 4.00795 18.111 4.11109C18.0079 4.21424 17.9499 4.35413 17.9499 4.5V10.5C17.9499 10.6459 18.0079 10.7858 18.111 10.8889C18.2142 10.9921 18.3541 11.05 18.4999 11.05ZM23.9499 5.05V9.95H19.0499V5.05H23.9499Z" fill="#B9B9B6" stroke="#B9B9B6" stroke-width="0.1"/>
<path d="M21.111 7.38915C21.2142 7.4923 21.3541 7.55024 21.4999 7.55024C21.6458 7.55024 21.7857 7.4923 21.8888 7.38915C21.992 7.28601 22.0499 7.14611 22.0499 7.00024V4.50024C22.0499 4.35438 21.992 4.21448 21.8888 4.11134C21.7857 4.00819 21.6458 3.95024 21.4999 3.95024C21.3541 3.95024 21.2142 4.00819 21.111 4.11134C21.0079 4.21448 20.9499 4.35438 20.9499 4.50024V7.00024C20.9499 7.14611 21.0079 7.28601 21.111 7.38915Z" fill="#B9B9B6" stroke="#B9B9B6" stroke-width="0.1"/>
</svg>
