<svg width="24" height="24" viewBox="0 0 24 24" fill="none" xmlns="http://www.w3.org/2000/svg">
<g clip-path="url(#clip0_635_567)">
<path d="M13.4409 14.0502H13.441C13.5282 14.0502 13.6142 14.0294 13.6918 13.9896C13.7694 13.9498 13.8365 13.8922 13.8875 13.8214C13.9385 13.7507 13.972 13.6688 13.9852 13.5826C13.9984 13.4964 13.9909 13.4082 13.9634 13.3255L13.9634 13.3254L11.4194 5.69343L11.4194 5.69342C11.25 5.18572 10.9252 4.74417 10.491 4.43131C10.0568 4.11845 9.53513 3.95015 8.99994 3.95024C8.99994 3.95024 8.99993 3.95024 8.99993 3.95024H5.49994C5.35407 3.95024 5.21418 4.00819 5.11103 4.11134C5.00789 4.21448 4.94994 4.35438 4.94994 4.50024L4.94994 11.5002L4.94994 11.5003C4.95075 12.1763 5.21966 12.8245 5.69769 13.3025C6.17572 13.7805 6.82384 14.0494 7.49988 14.0502H7.49994H13.4409ZM12.6786 12.9502H7.49994C6.70055 12.9502 6.04994 12.2996 6.04994 11.5002V5.05024L8.99994 5.05024L8.99998 5.05024C9.3044 5.04998 9.60117 5.14567 9.8481 5.32371C10.095 5.50175 10.2796 5.75308 10.3755 6.042L10.3755 6.04206L12.6786 12.9502Z" fill="#B9B9B6" stroke="#B9B9B6" stroke-width="0.1"/>
<path d="M7.49994 14.0502H7.5H14.95V17.9502H13.5C13.3541 17.9502 13.2142 18.0082 13.1111 18.1113C13.0079 18.2145 12.95 18.3544 12.95 18.5002C12.95 18.6461 13.0079 18.786 13.1111 18.8892C13.2142 18.9923 13.3541 19.0502 13.5 19.0502H15.5C15.6459 19.0502 15.7858 18.9923 15.8889 18.8892C15.9921 18.786 16.05 18.6461 16.05 18.5002V13.5002C16.05 13.3544 15.9921 13.2145 15.8889 13.1113C15.7858 13.0082 15.6459 12.9502 15.5 12.9502H7.5C6.70061 12.9502 6.05 12.2996 6.05 11.5002V10.5002C6.05 10.3544 5.99205 10.2145 5.88891 10.1113C5.78576 10.0082 5.64587 9.95024 5.5 9.95024H2.5C1.09337 9.95024 -0.05 11.0946 -0.05 12.5002V17.5002C-0.05 18.3549 0.645386 19.0502 1.5 19.0502H2.5C2.64587 19.0502 2.78576 18.9923 2.88891 18.8892C2.99205 18.786 3.05 18.6461 3.05 18.5002C3.05 18.3544 2.99205 18.2145 2.88891 18.1113C2.78576 18.0082 2.64587 17.9502 2.5 17.9502H1.5C1.38065 17.9502 1.26619 17.9028 1.1818 17.8184C1.09741 17.7341 1.05 17.6196 1.05 17.5002V12.5002C1.05 11.7009 1.70061 11.0502 2.5 11.0502H4.95V11.5002V11.5003C4.95081 12.1763 5.21972 12.8245 5.69775 13.3025C6.17579 13.7805 6.8239 14.0494 7.49994 14.0502Z" fill="#B9B9B6" stroke="#B9B9B6" stroke-width="0.1"/>
<path d="M6.5 19.0502H9.5C9.64587 19.0502 9.78576 18.9923 9.88891 18.8892C9.99205 18.786 10.05 18.6461 10.05 18.5002C10.05 18.3544 9.99205 18.2145 9.88891 18.1113C9.78576 18.0082 9.64587 17.9502 9.5 17.9502H6.5C6.35413 17.9502 6.21424 18.0082 6.11109 18.1113C6.00795 18.2145 5.95 18.3544 5.95 18.5002C5.95 18.6461 6.00795 18.786 6.11109 18.8892C6.21424 18.9923 6.35413 19.0502 6.5 19.0502ZM15.5 11.0502H23.5C23.6459 11.0502 23.7858 10.9923 23.8889 10.8892C23.9921 10.786 24.05 10.6461 24.05 10.5002C24.05 10.3544 23.9921 10.2145 23.8889 10.1113C23.7858 10.0082 23.6459 9.95024 23.5 9.95024H15.5C15.3541 9.95024 15.2142 10.0082 15.1111 10.1113C15.0079 10.2145 14.95 10.3544 14.95 10.5002C14.95 10.6461 15.0079 10.786 15.1111 10.8892C15.2142 10.9923 15.3541 11.0502 15.5 11.0502Z" fill="#B9B9B6" stroke="#B9B9B6" stroke-width="0.1"/>
<path d="M15.111 18.8889C15.2142 18.9921 15.3541 19.05 15.4999 19.05C15.6458 19.05 15.7857 18.9921 15.8888 18.8889C15.992 18.7858 16.0499 18.6459 16.0499 18.5V3.5C16.0499 3.35413 15.992 3.21424 15.8888 3.11109C15.7857 3.00795 15.6458 2.95 15.4999 2.95C15.3541 2.95 15.2142 3.00795 15.111 3.11109C15.0079 3.21424 14.9499 3.35413 14.9499 3.5V18.5C14.9499 18.6459 15.0079 18.7858 15.111 18.8889ZM1.94994 18.5C1.94994 19.9056 3.09331 21.05 4.49994 21.05C5.90657 21.05 7.04994 19.9056 7.04994 18.5C7.04994 17.0944 5.90657 15.95 4.49994 15.95C3.09331 15.95 1.94994 17.0944 1.94994 18.5ZM3.04994 18.5C3.04994 17.7006 3.70055 17.05 4.49994 17.05C5.29932 17.05 5.94994 17.7006 5.94994 18.5C5.94994 19.2994 5.29932 19.95 4.49994 19.95C3.70055 19.95 3.04994 19.2994 3.04994 18.5ZM8.94994 18.5C8.94994 19.9056 10.0933 21.05 11.4999 21.05C12.9066 21.05 14.0499 19.9056 14.0499 18.5C14.0499 17.0944 12.9066 15.95 11.4999 15.95C10.0933 15.95 8.94994 17.0944 8.94994 18.5ZM10.0499 18.5C10.0499 17.7006 10.7006 17.05 11.4999 17.05C12.2993 17.05 12.9499 17.7006 12.9499 18.5C12.9499 19.2994 12.2993 19.95 11.4999 19.95C10.7006 19.95 10.0499 19.2994 10.0499 18.5ZM17.4999 11.05H23.4999C23.6458 11.05 23.7857 10.9921 23.8888 10.8889C23.992 10.7858 24.0499 10.6459 24.0499 10.5V4.5C24.0499 4.35413 23.992 4.21424 23.8888 4.11109C23.7857 4.00795 23.6458 3.95 23.4999 3.95H17.4999C17.3541 3.95 17.2142 4.00795 17.111 4.11109C17.0079 4.21424 16.9499 4.35413 16.9499 4.5V10.5C16.9499 10.6459 17.0079 10.7858 17.111 10.8889C17.2142 10.9921 17.3541 11.05 17.4999 11.05ZM22.9499 5.05V9.95H18.0499V5.05H22.9499Z" fill="#B9B9B6" stroke="#B9B9B6" stroke-width="0.1"/>
<path d="M20.111 7.38915C20.2142 7.4923 20.3541 7.55024 20.4999 7.55024C20.6458 7.55024 20.7857 7.4923 20.8888 7.38915C20.992 7.28601 21.0499 7.14611 21.0499 7.00024V4.50024C21.0499 4.35438 20.992 4.21448 20.8888 4.11134C20.7857 4.00819 20.6458 3.95024 20.4999 3.95024C20.3541 3.95024 20.2142 4.00819 20.111 4.11134C20.0079 4.21448 19.9499 4.35438 19.9499 4.50024V7.00024C19.9499 7.14611 20.0079 7.28601 20.111 7.38915Z" fill="#B9B9B6" stroke="#B9B9B6" stroke-width="0.1"/>
</g>
<defs>
<clipPath id="clip0_635_567">
<rect width="24" height="24" fill="white"/>
</clipPath>
</defs>
</svg>
