<svg width="38" height="38" viewBox="0 0 32 32" fill="none" xmlns="http://www.w3.org/2000/svg">
<path d="M7.78928 14.5572H5.50714C5.18833 14.5572 4.93214 14.301 4.93214 13.9822C4.93214 13.6634 5.18833 13.4072 5.50714 13.4072H7.78928C8.1081 13.4072 8.36428 13.6634 8.36428 13.9822C8.36428 14.301 8.1081 14.5572 7.78928 14.5572Z" fill="#B9B9B6" stroke="#1C1C1E" stroke-width="0.1"/>
<path d="M17.2893 11.4714V11.5159L17.3334 11.5211C19.9301 11.8289 21.95 14.04 21.95 16.7143C21.95 19.601 19.601 21.95 16.7143 21.95C14.0365 21.95 11.8289 19.9301 11.5211 17.3334L11.5159 17.2893H11.4714H2.625C2.30619 17.2893 2.05 17.0331 2.05 16.7143V2.625C2.05 2.30619 2.30619 2.05 2.625 2.05H16.7143C17.0331 2.05 17.2893 2.30619 17.2893 2.625V11.4714ZM11.4929 3.25V3.2H11.4429H7.89286H7.84286V3.25V6.8V6.85H7.89286H11.4429H11.4929V6.8V3.25ZM3.25 3.2H3.2V3.25V16.0929V16.1429H3.25H11.4679H11.5123L11.5175 16.0987C11.8005 13.7039 13.7038 11.8041 16.0952 11.5211L16.1393 11.5159V11.4714V3.25V3.2H16.0893H12.6929H12.6429V3.25V7.425C12.6429 7.74381 12.3867 8 12.0679 8H7.27143C6.95261 8 6.69643 7.74381 6.69643 7.425V3.25V3.2H6.64643H3.25ZM12.6286 16.7143C12.6286 18.9669 14.4617 20.8 16.7143 20.8C18.9669 20.8 20.8 18.9669 20.8 16.7143C20.8 14.4617 18.9669 12.6286 16.7143 12.6286C14.4617 12.6286 12.6286 14.4617 12.6286 16.7143Z" fill="#B9B9B6" stroke="#1C1C1E" stroke-width="0.1"/>
<path d="M16.0003 17.1354L16.0357 17.1708L16.071 17.1354L18.1603 15.0461C18.3837 14.8228 18.7484 14.8228 18.9718 15.0461C19.1951 15.2694 19.1951 15.6342 18.9718 15.8575L16.4396 18.3897L16.4396 18.3897L16.4391 18.3902C16.3346 18.4979 16.1871 18.5572 16.0393 18.5572C15.8911 18.5572 15.7433 18.5012 15.6318 18.3897L14.4496 17.2075C14.2263 16.9842 14.2263 16.6194 14.4496 16.3961C14.6729 16.1728 15.0377 16.1728 15.261 16.3961L16.0003 17.1354Z" fill="#B9B9B6" stroke="#1C1C1E" stroke-width="0.1"/>
</svg>
