<svg width="97" height="20" viewBox="0 0 92 15" fill="none" xmlns="http://www.w3.org/2000/svg">
<path d="M62.74 5.36C63.4333 5.36 63.9833 5.57 64.39 5.99C64.8033 6.41 65.01 6.99333 65.01 7.74V11H63.31V7.97C63.31 7.61 63.2133 7.33333 63.02 7.14C62.8333 6.94 62.5733 6.84 62.24 6.84C61.9067 6.84 61.6433 6.94 61.45 7.14C61.2633 7.33333 61.17 7.61 61.17 7.97V11H59.47V7.97C59.47 7.61 59.3733 7.33333 59.18 7.14C58.9933 6.94 58.7333 6.84 58.4 6.84C58.0667 6.84 57.8033 6.94 57.61 7.14C57.4233 7.33333 57.33 7.61 57.33 7.97V11H55.62V5.42H57.33V6.12C57.5033 5.88667 57.73 5.70333 58.01 5.57C58.29 5.43 58.6067 5.36 58.96 5.36C59.38 5.36 59.7533 5.45 60.08 5.63C60.4133 5.81 60.6733 6.06667 60.86 6.4C61.0533 6.09333 61.3167 5.84333 61.65 5.65C61.9833 5.45667 62.3467 5.36 62.74 5.36ZM71.9059 5.42L68.4059 13.65H66.5659L67.8459 10.81L65.5759 5.42H67.4859L68.7759 8.91L70.0559 5.42H71.9059Z" fill="#F36F21"/>
<path d="M77.5743 3.98V5.35H75.7143V11H74.0043V5.35H72.1443V3.98H77.5743ZM85.0225 3.98L82.5325 11H80.3925L77.9025 3.98H79.7225L81.4625 9.28L83.2125 3.98H85.0225ZM88.2772 11.07C87.7639 11.07 87.3039 10.9867 86.8972 10.82C86.4905 10.6533 86.1639 10.4067 85.9172 10.08C85.6772 9.75333 85.5505 9.36 85.5372 8.9H87.3572C87.3839 9.16 87.4739 9.36 87.6272 9.5C87.7805 9.63333 87.9805 9.7 88.2272 9.7C88.4805 9.7 88.6805 9.64333 88.8272 9.53C88.9739 9.41 89.0472 9.24667 89.0472 9.04C89.0472 8.86667 88.9872 8.72333 88.8672 8.61C88.7539 8.49667 88.6105 8.40333 88.4372 8.33C88.2705 8.25667 88.0305 8.17333 87.7172 8.08C87.2639 7.94 86.8939 7.8 86.6072 7.66C86.3205 7.52 86.0739 7.31333 85.8672 7.04C85.6605 6.76667 85.5572 6.41 85.5572 5.97C85.5572 5.31667 85.7939 4.80667 86.2672 4.44C86.7405 4.06667 87.3572 3.88 88.1172 3.88C88.8905 3.88 89.5139 4.06667 89.9872 4.44C90.4605 4.80667 90.7139 5.32 90.7472 5.98H88.8972C88.8839 5.75333 88.8005 5.57667 88.6472 5.45C88.4939 5.31667 88.2972 5.25 88.0572 5.25C87.8505 5.25 87.6839 5.30667 87.5572 5.42C87.4305 5.52667 87.3672 5.68333 87.3672 5.89C87.3672 6.11667 87.4739 6.29333 87.6872 6.42C87.9005 6.54667 88.2339 6.68333 88.6872 6.83C89.1405 6.98333 89.5072 7.13 89.7872 7.27C90.0739 7.41 90.3205 7.61333 90.5272 7.88C90.7339 8.14667 90.8372 8.49 90.8372 8.91C90.8372 9.31 90.7339 9.67333 90.5272 10C90.3272 10.3267 90.0339 10.5867 89.6472 10.78C89.2605 10.9733 88.8039 11.07 88.2772 11.07Z" fill="white"/>
<path d="M4.488 7.096C4.488 7.37867 4.42133 7.64533 4.288 7.896C4.15467 8.14667 3.94133 8.352 3.648 8.512C3.35467 8.66667 2.97867 8.744 2.52 8.744H1.512V11H0.6V5.44H2.52C2.94667 5.44 3.30667 5.51467 3.6 5.664C3.89867 5.808 4.12 6.00533 4.264 6.256C4.41333 6.50667 4.488 6.78667 4.488 7.096ZM2.52 8C2.86667 8 3.12533 7.92267 3.296 7.768C3.46667 7.608 3.552 7.384 3.552 7.096C3.552 6.488 3.208 6.184 2.52 6.184H1.512V8H2.52ZM7.26981 11.072C6.85381 11.072 6.47781 10.9787 6.14181 10.792C5.80581 10.6 5.54181 10.3333 5.34981 9.992C5.15781 9.64533 5.06181 9.24533 5.06181 8.792C5.06181 8.344 5.16048 7.94667 5.35781 7.6C5.55515 7.25333 5.82448 6.98667 6.16581 6.8C6.50715 6.61333 6.88848 6.52 7.30981 6.52C7.73115 6.52 8.11248 6.61333 8.45381 6.8C8.79515 6.98667 9.06448 7.25333 9.26181 7.6C9.45915 7.94667 9.55781 8.344 9.55781 8.792C9.55781 9.24 9.45648 9.63733 9.25381 9.984C9.05115 10.3307 8.77381 10.6 8.42181 10.792C8.07515 10.9787 7.69115 11.072 7.26981 11.072ZM7.26981 10.28C7.50448 10.28 7.72315 10.224 7.92581 10.112C8.13381 10 8.30181 9.832 8.42981 9.608C8.55781 9.384 8.62181 9.112 8.62181 8.792C8.62181 8.472 8.56048 8.20267 8.43781 7.984C8.31515 7.76 8.15248 7.592 7.94981 7.48C7.74715 7.368 7.52848 7.312 7.29381 7.312C7.05915 7.312 6.84048 7.368 6.63781 7.48C6.44048 7.592 6.28315 7.76 6.16581 7.984C6.04848 8.20267 5.98981 8.472 5.98981 8.792C5.98981 9.26667 6.10981 9.63467 6.34981 9.896C6.59515 10.152 6.90181 10.28 7.26981 10.28ZM16.3794 6.592L15.0114 11H14.0514L13.1634 7.744L12.2754 11H11.3154L9.93938 6.592H10.8674L11.7874 10.136L12.7234 6.592H13.6754L14.5714 10.12L15.4834 6.592H16.3794ZM21.1009 8.688C21.1009 8.85333 21.0903 9.00267 21.0689 9.136H17.7009C17.7276 9.488 17.8583 9.77067 18.0929 9.984C18.3276 10.1973 18.6156 10.304 18.9569 10.304C19.4476 10.304 19.7943 10.0987 19.9969 9.688H20.9809C20.8476 10.0933 20.6049 10.4267 20.2529 10.688C19.9063 10.944 19.4743 11.072 18.9569 11.072C18.5356 11.072 18.1569 10.9787 17.8209 10.792C17.4903 10.6 17.2289 10.3333 17.0369 9.992C16.8503 9.64533 16.7569 9.24533 16.7569 8.792C16.7569 8.33867 16.8476 7.94133 17.0289 7.6C17.2156 7.25333 17.4743 6.98667 17.8049 6.8C18.1409 6.61333 18.5249 6.52 18.9569 6.52C19.3729 6.52 19.7436 6.61067 20.0689 6.792C20.3943 6.97333 20.6476 7.22933 20.8289 7.56C21.0103 7.88533 21.1009 8.26133 21.1009 8.688ZM20.1489 8.4C20.1436 8.064 20.0236 7.79467 19.7889 7.592C19.5543 7.38933 19.2636 7.288 18.9169 7.288C18.6023 7.288 18.3329 7.38933 18.1089 7.592C17.8849 7.78933 17.7516 8.05867 17.7089 8.4H20.1489ZM22.9104 7.232C23.0438 7.008 23.2198 6.83467 23.4384 6.712C23.6624 6.584 23.9264 6.52 24.2304 6.52V7.464H23.9984C23.6411 7.464 23.3691 7.55467 23.1824 7.736C23.0011 7.91733 22.9104 8.232 22.9104 8.68V11H21.9984V6.592H22.9104V7.232ZM29.1088 8.688C29.1088 8.85333 29.0981 9.00267 29.0768 9.136H25.7088C25.7354 9.488 25.8661 9.77067 26.1008 9.984C26.3354 10.1973 26.6234 10.304 26.9648 10.304C27.4554 10.304 27.8021 10.0987 28.0048 9.688H28.9887C28.8554 10.0933 28.6128 10.4267 28.2608 10.688C27.9141 10.944 27.4821 11.072 26.9648 11.072C26.5434 11.072 26.1648 10.9787 25.8288 10.792C25.4981 10.6 25.2368 10.3333 25.0448 9.992C24.8581 9.64533 24.7648 9.24533 24.7648 8.792C24.7648 8.33867 24.8554 7.94133 25.0368 7.6C25.2234 7.25333 25.4821 6.98667 25.8128 6.8C26.1488 6.61333 26.5328 6.52 26.9648 6.52C27.3808 6.52 27.7514 6.61067 28.0768 6.792C28.4021 6.97333 28.6554 7.22933 28.8368 7.56C29.0181 7.88533 29.1088 8.26133 29.1088 8.688ZM28.1568 8.4C28.1514 8.064 28.0314 7.79467 27.7968 7.592C27.5621 7.38933 27.2714 7.288 26.9248 7.288C26.6101 7.288 26.3408 7.38933 26.1168 7.592C25.8928 7.78933 25.7594 8.05867 25.7168 8.4H28.1568ZM29.7023 8.776C29.7023 8.33333 29.7929 7.94133 29.9743 7.6C30.1609 7.25867 30.4116 6.99467 30.7263 6.808C31.0463 6.616 31.4009 6.52 31.7903 6.52C32.0783 6.52 32.3609 6.584 32.6383 6.712C32.9209 6.83467 33.1449 7 33.3103 7.208V5.08H34.2303V11H33.3103V10.336C33.1609 10.5493 32.9529 10.7253 32.6863 10.864C32.4249 11.0027 32.1236 11.072 31.7823 11.072C31.3983 11.072 31.0463 10.976 30.7263 10.784C30.4116 10.5867 30.1609 10.3147 29.9743 9.968C29.7929 9.616 29.7023 9.21867 29.7023 8.776ZM33.3103 8.792C33.3103 8.488 33.2463 8.224 33.1183 8C32.9956 7.776 32.8329 7.60533 32.6303 7.488C32.4276 7.37067 32.2089 7.312 31.9743 7.312C31.7396 7.312 31.5209 7.37067 31.3183 7.488C31.1156 7.6 30.9503 7.768 30.8223 7.992C30.6996 8.21067 30.6383 8.472 30.6383 8.776C30.6383 9.08 30.6996 9.34667 30.8223 9.576C30.9503 9.80533 31.1156 9.98133 31.3183 10.104C31.5263 10.2213 31.7449 10.28 31.9743 10.28C32.2089 10.28 32.4276 10.2213 32.6303 10.104C32.8329 9.98667 32.9956 9.816 33.1183 9.592C33.2463 9.36267 33.3103 9.096 33.3103 8.792ZM40.4823 8.144C40.7809 8.19733 41.0343 8.35467 41.2423 8.616C41.4503 8.87733 41.5543 9.17333 41.5543 9.504C41.5543 9.78667 41.4796 10.0427 41.3303 10.272C41.1863 10.496 40.9756 10.6747 40.6983 10.808C40.4209 10.936 40.0983 11 39.7303 11H37.5063V5.44H39.6263C40.0049 5.44 40.3303 5.504 40.6023 5.632C40.8743 5.76 41.0796 5.93333 41.2183 6.152C41.3569 6.36533 41.4262 6.60533 41.4262 6.872C41.4262 7.192 41.3409 7.45867 41.1703 7.672C40.9996 7.88533 40.7703 8.04267 40.4823 8.144ZM38.4183 7.776H39.5463C39.8449 7.776 40.0769 7.70933 40.2423 7.576C40.4129 7.43733 40.4983 7.24 40.4983 6.984C40.4983 6.73333 40.4129 6.53867 40.2423 6.4C40.0769 6.256 39.8449 6.184 39.5463 6.184H38.4183V7.776ZM39.6503 10.256C39.9596 10.256 40.2023 10.1813 40.3783 10.032C40.5543 9.88267 40.6423 9.67467 40.6423 9.408C40.6423 9.136 40.5489 8.92 40.3623 8.76C40.1756 8.6 39.9276 8.52 39.6183 8.52H38.4183V10.256H39.6503ZM46.5133 6.592L43.8093 13.072H42.8653L43.7613 10.928L42.0253 6.592H43.0413L44.2813 9.952L45.5693 6.592H46.5133Z" fill="white"/>
</svg>
