<svg width="38" height="38" viewBox="0 0 32 32" fill="none" xmlns="http://www.w3.org/2000/svg">
<path d="M8.49737 4.00021H7.19818C5.97477 4.00021 4.00028 4.00025 4.00028 4.00025C4.00028 4.00025 4.00018 6.0258 4.00018 7.20021V8.50021M15.493 4.00021H16.7922C18.0081 4.00021 19.9902 4 19.9902 4C19.9902 4 19.9902 6.03174 19.9902 7.20021V8.50021M19.9902 15.5002V16.8002C19.9902 18.0457 20.0002 20 20.0002 20C20.0002 20 17.9459 20.0002 16.7922 20.0002H15.493M4.00018 15.5002V16.8002C4.00018 18.0571 4.01003 20.0002 4.01003 20.0002C4.01003 20.0002 6.06242 20.0002 7.19818 20.0002H8.49737" stroke="#B9B9B6" stroke-linejoin="round"/>
<rect x="3" y="11.5" width="1" height="1" fill="#D9D9D9"/>
<rect x="6.40002" y="11.5" width="1" height="1" fill="#D9D9D9"/>
<rect x="9.79999" y="11.5" width="1" height="1" fill="#D9D9D9"/>
<rect x="13.2" y="11.5" width="1" height="1" fill="#D9D9D9"/>
<rect x="16.6" y="11.5" width="1" height="1" fill="#D9D9D9"/>
<rect x="20" y="11.5" width="1" height="1" fill="#D9D9D9"/>
</svg>
