<svg width="64" height="42" viewBox="0 0 64 42" fill="none" xmlns="http://www.w3.org/2000/svg">
<ellipse cx="31.5" cy="36.5" rx="22" ry="5.5" fill="#2D2D2F"/>
<path d="M53.25 36.5C53.25 37.1164 52.7442 37.7753 51.6439 38.4256C50.5603 39.0661 48.9757 39.6515 46.9957 40.1466C43.0395 41.1356 37.5608 41.75 31.5 41.75C25.4392 41.75 19.9605 41.1356 16.0043 40.1466C14.0243 39.6515 12.4397 39.0661 11.3561 38.4256C10.2558 37.7753 9.75 37.1164 9.75 36.5C9.75 35.8836 10.2558 35.2247 11.3561 34.5744C12.4397 33.9339 14.0243 33.3485 16.0043 32.8534C19.9605 31.8644 25.4392 31.25 31.5 31.25C37.5608 31.25 43.0395 31.8644 46.9957 32.8534C48.9757 33.3485 50.5603 33.9339 51.6439 34.5744C52.7442 35.2247 53.25 35.8836 53.25 36.5Z" stroke="white" stroke-opacity="0.1" stroke-width="0.5"/>
<g filter="url(#filter0_i_291_336)">
<path d="M3 1H61L43 35H20L3 1Z" fill="#D9D9D9" fill-opacity="0.08"/>
</g>
<path d="M45.875 34.875V37.375H17.125V34.875H20.25H42.75H45.875Z" fill="#586889"/>
<path d="M42.75 16.2375L31.5 11.125L20.25 16.2375L17.75 17.375V14.875L31.5 8.625L45.25 14.875V17.375L42.75 16.2375Z" fill="#57FF9B"/>
<path d="M17.75 16.125V17.375L20.25 16.2375L31.5 11.125L42.75 16.2375L45.25 17.375V16.125L31.5 9.875L17.75 16.125Z" fill="#41C67D"/>
<path d="M42.75 16.2375V34.875H20.25V16.2375L31.5 11.125L42.75 16.2375Z" fill="#CCD3EB"/>
<path d="M31.5 11.125L20.25 16.2387V18.7375L31.5 13.625L42.75 18.7375V16.2387L31.5 11.125Z" fill="#586889"/>
<path d="M31.5 11.125L20.25 16.2387V16.8637L31.5 11.75L42.75 16.8637V16.2387L31.5 11.125Z" fill="#2B3E5B"/>
<path d="M45.875 34.875H17.125V35.5H45.875V34.875Z" fill="#96A1C3"/>
<path d="M45.875 36.75H17.125V37.375H45.875V36.75Z" fill="#415372"/>
<path d="M43.0625 34.875H33.6875C33.5149 34.875 33.375 35.0149 33.375 35.1875C33.375 35.3601 33.5149 35.5 33.6875 35.5H43.0625C43.2351 35.5 43.375 35.3601 43.375 35.1875C43.375 35.0149 43.2351 34.875 43.0625 34.875Z" fill="#ADB5D5"/>
<path d="M44.9375 34.875H44.3125C44.1399 34.875 44 35.0149 44 35.1875C44 35.3601 44.1399 35.5 44.3125 35.5H44.9375C45.1101 35.5 45.25 35.3601 45.25 35.1875C45.25 35.0149 45.1101 34.875 44.9375 34.875Z" fill="#ADB5D5"/>
<path d="M23.0625 36.125H19.9375C19.7649 36.125 19.625 36.2649 19.625 36.4375C19.625 36.6101 19.7649 36.75 19.9375 36.75H23.0625C23.2351 36.75 23.375 36.6101 23.375 36.4375C23.375 36.2649 23.2351 36.125 23.0625 36.125Z" fill="#415372"/>
<path d="M24.9375 36.125H24.3125C24.1399 36.125 24 36.2649 24 36.4375C24 36.6101 24.1399 36.75 24.3125 36.75H24.9375C25.1101 36.75 25.25 36.6101 25.25 36.4375C25.25 36.2649 25.1101 36.125 24.9375 36.125Z" fill="#415372"/>
<path d="M43.0625 36.75H19.9375C19.7649 36.75 19.625 36.8899 19.625 37.0625C19.625 37.2351 19.7649 37.375 19.9375 37.375H43.0625C43.2351 37.375 43.375 37.2351 43.375 37.0625C43.375 36.8899 43.2351 36.75 43.0625 36.75Z" fill="#2B3E5B"/>
<path d="M20.25 18.7376V34.8751H21.5V18.1694L20.25 18.7376Z" fill="#ADB5D5"/>
<path d="M41.5 34.8751H42.75V18.7376L41.5 18.1694V34.8751Z" fill="#DEE3F3"/>
<path d="M21.5 16.2957L20.25 16.8638V18.7375L21.5 18.1694V16.2957Z" fill="#415372"/>
<path d="M41.5 18.1694L42.75 18.7375V16.8638L41.5 16.2957V18.1694Z" fill="#7989AF"/>
<path d="M41.5 16.2957L42.75 16.8638V16.2388L41.5 15.6707V16.2957Z" fill="#415372"/>
<path d="M21.5 15.6707L20.25 16.2388V16.8638L21.5 16.2957V15.6707Z" fill="#192B44"/>
<path d="M21.5 25.1875C21.5 25.0149 21.3601 24.875 21.1875 24.875C21.0149 24.875 20.875 25.0149 20.875 25.1875V34.5625C20.875 34.7351 21.0149 34.875 21.1875 34.875C21.3601 34.875 21.5 34.7351 21.5 34.5625V25.1875Z" fill="#96A1C3"/>
<path d="M21.5 23.3125C21.5 23.1399 21.3601 23 21.1875 23C21.0149 23 20.875 23.1399 20.875 23.3125V23.9375C20.875 24.1101 21.0149 24.25 21.1875 24.25C21.3601 24.25 21.5 24.1101 21.5 23.9375V23.3125Z" fill="#96A1C3"/>
<path d="M42.125 18.9375C42.125 18.7649 41.9851 18.625 41.8125 18.625C41.6399 18.625 41.5 18.7649 41.5 18.9375V28.3125C41.5 28.4851 41.6399 28.625 41.8125 28.625C41.9851 28.625 42.125 28.4851 42.125 28.3125V18.9375Z" fill="#F0F3FF"/>
<path d="M42.125 29.5625C42.125 29.3899 41.9851 29.25 41.8125 29.25C41.6399 29.25 41.5 29.3899 41.5 29.5625V30.1875C41.5 30.3601 41.6399 30.5 41.8125 30.5C41.9851 30.5 42.125 30.3601 42.125 30.1875V29.5625Z" fill="#F0F3FF"/>
<path d="M34 28.625V34.875H29.625H25.25V28.625H28.375V31.75H30.875V28.625H34Z" fill="#07A260"/>
<path d="M28.375 28.625H25.25V29.875H28.375V28.625Z" fill="#66B4FF"/>
<path d="M34 34.25H25.25V34.875H34V34.25Z" fill="#0E7950"/>
<path d="M30.875 30.5H28.375V31.75H30.875V30.5Z" fill="#CCD3EB"/>
<path d="M30.875 29.875V28.625H29.625H28.375V29.875H30.875Z" fill="#DEE3F3"/>
<path d="M34 28.625H30.875V29.875H34V28.625Z" fill="#70D9FF"/>
<path d="M28.375 29.875V28.625H25.875C25.8784 29.0514 25.9545 29.4742 26.1 29.875H28.375Z" fill="#70D9FF"/>
<path d="M30.875 29.875H28.375V30.5H30.875V29.875Z" fill="#96A1C3"/>
<path d="M32.8448 33.5657C32.9456 33.4648 32.9137 33.2696 32.7735 33.1295C32.6334 32.9895 32.4381 32.9577 32.3373 33.0585C32.2365 33.1593 32.2685 33.3546 32.4086 33.4947C32.5488 33.6347 32.7441 33.6665 32.8448 33.5657Z" fill="#F6FAFD"/>
<path d="M32.0075 33.5072C32.2088 33.3057 32.1448 32.9154 31.8645 32.6353C31.5842 32.3552 31.1938 32.2914 30.9925 32.4928C30.7912 32.6942 30.8552 33.0846 31.1355 33.3647C31.4158 33.6448 31.8062 33.7086 32.0075 33.5072Z" fill="#F6FAFD"/>
<path d="M40.25 18.625H22.75V21.125H40.25V18.625Z" fill="#65769C"/>
<path d="M40.25 21.125H22.75V23.625H40.25V21.125Z" fill="#586889"/>
<path d="M40.25 23.625H22.75V26.125H40.25V23.625Z" fill="#65769C"/>
<path d="M25.25 34.875V28.625H34V34.875H40.25V26.125H22.75V34.875H25.25Z" fill="#586889"/>
<path d="M23.375 21.125V19.25L22.75 18.625V21.125H23.375Z" fill="#2B3E5B"/>
<path d="M22.75 18.625L23.375 19.25H39.625L40.25 18.625H22.75Z" fill="#192B44"/>
<path d="M40.25 18.625L39.625 19.25V21.125H40.25V18.625Z" fill="#2B3E5B"/>
<path d="M23.375 23.625V21.75L22.75 21.125V23.625H23.375Z" fill="#2B3E5B"/>
<path d="M22.75 21.125L23.375 21.75H39.625L40.25 21.125H22.75Z" fill="#192B44"/>
<path d="M40.25 21.125L39.625 21.75V23.625H40.25V21.125Z" fill="#2B3E5B"/>
<path d="M39.625 20.5H23.375V21.125H39.625V20.5Z" fill="#96A1C3"/>
<path d="M39.625 23H23.375V23.625H39.625V23Z" fill="#96A1C3"/>
<path d="M23.375 26.125V24.25L22.75 23.625V26.125H23.375Z" fill="#2B3E5B"/>
<path d="M22.75 23.625L23.375 24.25H39.625L40.25 23.625H22.75Z" fill="#192B44"/>
<path d="M40.25 23.625L39.625 24.25V26.125H40.25V23.625Z" fill="#2B3E5B"/>
<path d="M39.625 25.5H23.375V26.125H39.625V25.5Z" fill="#96A1C3"/>
<path d="M22.75 34.875L24 33.625H25.25V34.875H22.75Z" fill="#2B3E5B"/>
<path d="M34 34.875V33.625H39L40.25 34.875H34Z" fill="#2B3E5B"/>
<path d="M39 33.625V26.125H40.25V34.875L39 33.625Z" fill="#192B44"/>
<path d="M24 33.625V26.125H22.75V34.875L24 33.625Z" fill="#192B44"/>
<path d="M39 26.125H24V27.375H39V26.125Z" fill="#192B44"/>
<path d="M36.8125 20.5H27.4375C27.2649 20.5 27.125 20.6399 27.125 20.8125C27.125 20.9851 27.2649 21.125 27.4375 21.125H36.8125C36.9851 21.125 37.125 20.9851 37.125 20.8125C37.125 20.6399 36.9851 20.5 36.8125 20.5Z" fill="#415372"/>
<path d="M38.6875 20.5H38.0625C37.8899 20.5 37.75 20.6399 37.75 20.8125C37.75 20.9851 37.8899 21.125 38.0625 21.125H38.6875C38.8601 21.125 39 20.9851 39 20.8125C39 20.6399 38.8601 20.5 38.6875 20.5Z" fill="#415372"/>
<path d="M26.8125 24.25H23.6875C23.5149 24.25 23.375 24.3899 23.375 24.5625C23.375 24.7351 23.5149 24.875 23.6875 24.875H26.8125C26.9851 24.875 27.125 24.7351 27.125 24.5625C27.125 24.3899 26.9851 24.25 26.8125 24.25Z" fill="#415372"/>
<path d="M28.6875 24.25H28.0625C27.8899 24.25 27.75 24.3899 27.75 24.5625C27.75 24.7351 27.8899 24.875 28.0625 24.875H28.6875C28.8601 24.875 29 24.7351 29 24.5625C29 24.3899 28.8601 24.25 28.6875 24.25Z" fill="#415372"/>
<path d="M41.5 15.6706L42.75 16.2387V16.2375L31.5 11.125L41.5 15.6706Z" fill="#CCD3EB"/>
<path d="M23.7037 14.6681V14.6688L31.5 11.125L23.7037 14.6681Z" fill="#CCD3EB"/>
<path d="M41.5 18.1694L42.75 18.7376L41.5 18.1694Z" fill="#7989AF"/>
<path d="M41.5 16.2957L42.75 16.8638L41.5 16.2957Z" fill="#7989AF"/>
<path d="M41.5 15.6707L42.75 16.2388L41.5 15.6707Z" fill="#415372"/>
<defs>
<filter id="filter0_i_291_336" x="3" y="1" width="58" height="34" filterUnits="userSpaceOnUse" color-interpolation-filters="sRGB">
<feFlood flood-opacity="0" result="BackgroundImageFix"/>
<feBlend mode="normal" in="SourceGraphic" in2="BackgroundImageFix" result="shape"/>
<feColorMatrix in="SourceAlpha" type="matrix" values="0 0 0 0 0 0 0 0 0 0 0 0 0 0 0 0 0 0 127 0" result="hardAlpha"/>
<feOffset dy="1"/>
<feComposite in2="hardAlpha" operator="arithmetic" k2="-1" k3="1"/>
<feColorMatrix type="matrix" values="0 0 0 0 0 0 0 0 0 0 0 0 0 0 0 0 0 0 0.08 0"/>
<feBlend mode="normal" in2="shape" result="effect1_innerShadow_291_336"/>
</filter>
</defs>
</svg>
