<svg width="32" height="32" viewBox="0 0 24 24" fill="none" xmlns="http://www.w3.org/2000/svg">
<rect width="24" height="24" fill="#02B240"/>
<path d="M8.66667 17.7606V11.494C8.66667 11.1206 8.66667 10.9339 8.73933 10.7913C8.80324 10.6659 8.90523 10.5639 9.03067 10.5C9.17328 10.4273 9.35997 10.4273 9.73333 10.4273H14.2667C14.64 10.4273 14.8267 10.4273 14.9693 10.5C15.0948 10.5639 15.1968 10.6659 15.2607 10.7913C15.3333 10.9339 15.3333 11.1206 15.3333 11.494V17.7606M6 17.7606V10.7528C6 10.0369 6 9.67898 6.10878 9.36277C6.20498 9.08314 6.36199 8.82832 6.5685 8.61666C6.80203 8.37731 7.12173 8.21637 7.76114 7.89449L10.5611 6.48496C11.0886 6.21945 11.3523 6.08669 11.6291 6.03445C11.8742 5.98819 12.1258 5.98819 12.3709 6.03445C12.6477 6.08669 12.9114 6.21945 13.4389 6.48496L16.2389 7.89449C16.8783 8.21637 17.198 8.37731 17.4315 8.61666C17.638 8.82832 17.795 9.08314 17.8912 9.36277C18 9.67898 18 10.0369 18 10.7528V17.7606H6Z" stroke="#FDFCF7" stroke-linecap="round" stroke-linejoin="round"/>
<path d="M10.6667 13.0942H13.3334M10.6667 15.7609H13.3334" stroke="#FDFCF7" stroke-linejoin="round"/>
</svg>
